G04 #@! TF.GenerationSoftware,KiCad,Pcbnew,(5.0.0)*
G04 #@! TF.CreationDate,2018-07-25T01:58:25+02:00*
G04 #@! TF.ProjectId,tda2030MonoAmplifier,746461323033304D6F6E6F416D706C69,rev?*
G04 #@! TF.SameCoordinates,Original*
G04 #@! TF.FileFunction,Copper,L2,Bot,Signal*
G04 #@! TF.FilePolarity,Positive*
%FSLAX46Y46*%
G04 Gerber Fmt 4.6, Leading zero omitted, Abs format (unit mm)*
G04 Created by KiCad (PCBNEW (5.0.0)) date 07/25/18 01:58:25*
%MOMM*%
%LPD*%
G01*
G04 APERTURE LIST*
G04 #@! TA.AperFunction,ComponentPad*
%ADD10R,3.960000X1.980000*%
G04 #@! TD*
G04 #@! TA.AperFunction,ComponentPad*
%ADD11O,3.960000X1.980000*%
G04 #@! TD*
G04 #@! TA.AperFunction,ComponentPad*
%ADD12R,1.600000X1.600000*%
G04 #@! TD*
G04 #@! TA.AperFunction,ComponentPad*
%ADD13C,1.600000*%
G04 #@! TD*
G04 #@! TA.AperFunction,ComponentPad*
%ADD14R,2.400000X2.400000*%
G04 #@! TD*
G04 #@! TA.AperFunction,ComponentPad*
%ADD15C,2.400000*%
G04 #@! TD*
G04 #@! TA.AperFunction,ComponentPad*
%ADD16O,2.200000X2.200000*%
G04 #@! TD*
G04 #@! TA.AperFunction,ComponentPad*
%ADD17R,2.200000X2.200000*%
G04 #@! TD*
G04 #@! TA.AperFunction,ComponentPad*
%ADD18C,5.400000*%
G04 #@! TD*
G04 #@! TA.AperFunction,ComponentPad*
%ADD19O,2.400000X2.400000*%
G04 #@! TD*
G04 #@! TA.AperFunction,ComponentPad*
%ADD20R,1.800000X1.800000*%
G04 #@! TD*
G04 #@! TA.AperFunction,ComponentPad*
%ADD21O,1.800000X1.800000*%
G04 #@! TD*
G04 #@! TA.AperFunction,Conductor*
%ADD22C,1.500000*%
G04 #@! TD*
G04 #@! TA.AperFunction,Conductor*
%ADD23C,2.000000*%
G04 #@! TD*
G04 APERTURE END LIST*
D10*
G04 #@! TO.P,Speaker,1*
G04 #@! TO.N,Net-(C6-Pad2)*
X153035000Y-103505000D03*
D11*
G04 #@! TO.P,Speaker,2*
G04 #@! TO.N,GND*
X153035000Y-108505000D03*
G04 #@! TD*
D12*
G04 #@! TO.P,C1,1*
G04 #@! TO.N,Net-(C1-Pad1)*
X122555000Y-103505000D03*
D13*
G04 #@! TO.P,C1,2*
G04 #@! TO.N,Net-(C1-Pad2)*
X125055000Y-103505000D03*
G04 #@! TD*
D12*
G04 #@! TO.P,C2,1*
G04 #@! TO.N,Net-(C2-Pad1)*
X124500000Y-133985000D03*
D13*
G04 #@! TO.P,C2,2*
G04 #@! TO.N,GND*
X127000000Y-133985000D03*
G04 #@! TD*
G04 #@! TO.P,C3,2*
G04 #@! TO.N,GND*
X142875000Y-102275000D03*
D12*
G04 #@! TO.P,C3,1*
G04 #@! TO.N,VCC*
X142875000Y-104775000D03*
G04 #@! TD*
G04 #@! TO.P,C4,1*
G04 #@! TO.N,Net-(C4-Pad1)*
X118110000Y-133985000D03*
D13*
G04 #@! TO.P,C4,2*
G04 #@! TO.N,GND*
X120610000Y-133985000D03*
G04 #@! TD*
G04 #@! TO.P,C5,1*
G04 #@! TO.N,Net-(C5-Pad1)*
X140970000Y-133985000D03*
G04 #@! TO.P,C5,2*
G04 #@! TO.N,GND*
X133470000Y-133985000D03*
G04 #@! TD*
D14*
G04 #@! TO.P,C6,1*
G04 #@! TO.N,Net-(C6-Pad1)*
X152400000Y-121920000D03*
D15*
G04 #@! TO.P,C6,2*
G04 #@! TO.N,Net-(C6-Pad2)*
X152400000Y-116920000D03*
G04 #@! TD*
D16*
G04 #@! TO.P,D1,2*
G04 #@! TO.N,Net-(C6-Pad1)*
X138430000Y-129540000D03*
D17*
G04 #@! TO.P,D1,1*
G04 #@! TO.N,VCC*
X138430000Y-119380000D03*
G04 #@! TD*
G04 #@! TO.P,D2,1*
G04 #@! TO.N,Net-(C6-Pad1)*
X130810000Y-119380000D03*
D16*
G04 #@! TO.P,D2,2*
G04 #@! TO.N,GND*
X130810000Y-129540000D03*
G04 #@! TD*
D10*
G04 #@! TO.P,IN,1*
G04 #@! TO.N,GND*
X113030000Y-108585000D03*
D11*
G04 #@! TO.P,IN,2*
G04 #@! TO.N,Net-(C1-Pad1)*
X113030000Y-103585000D03*
G04 #@! TD*
G04 #@! TO.P,Power,2*
G04 #@! TO.N,GND*
X153035000Y-133905000D03*
D10*
G04 #@! TO.P,Power,1*
G04 #@! TO.N,VCC*
X153035000Y-128905000D03*
G04 #@! TD*
D18*
G04 #@! TO.P,MH1,1*
G04 #@! TO.N,Net-(MH1-Pad1)*
X154940000Y-96520000D03*
G04 #@! TD*
G04 #@! TO.P,MH2,1*
G04 #@! TO.N,Net-(MH2-Pad1)*
X111125000Y-140970000D03*
G04 #@! TD*
G04 #@! TO.P,MH3,1*
G04 #@! TO.N,Net-(MH3-Pad1)*
X154940000Y-140970000D03*
G04 #@! TD*
G04 #@! TO.P,MH4,1*
G04 #@! TO.N,Net-(MH4-Pad1)*
X111125000Y-96520000D03*
G04 #@! TD*
D19*
G04 #@! TO.P,R1,2*
G04 #@! TO.N,GND*
X127000000Y-129540000D03*
D15*
G04 #@! TO.P,R1,1*
G04 #@! TO.N,Net-(C2-Pad1)*
X127000000Y-114300000D03*
G04 #@! TD*
G04 #@! TO.P,R2,1*
G04 #@! TO.N,Net-(C2-Pad1)*
X122555000Y-129540000D03*
D19*
G04 #@! TO.P,R2,2*
G04 #@! TO.N,Net-(C1-Pad2)*
X122555000Y-114300000D03*
G04 #@! TD*
D15*
G04 #@! TO.P,R3,1*
G04 #@! TO.N,VCC*
X134620000Y-114300000D03*
D19*
G04 #@! TO.P,R3,2*
G04 #@! TO.N,Net-(C2-Pad1)*
X134620000Y-129540000D03*
G04 #@! TD*
G04 #@! TO.P,R4,2*
G04 #@! TO.N,Net-(R4-Pad2)*
X113665000Y-114300000D03*
D15*
G04 #@! TO.P,R4,1*
G04 #@! TO.N,Net-(C6-Pad1)*
X113665000Y-129540000D03*
G04 #@! TD*
G04 #@! TO.P,R5,1*
G04 #@! TO.N,Net-(R4-Pad2)*
X118110000Y-114300000D03*
D19*
G04 #@! TO.P,R5,2*
G04 #@! TO.N,Net-(C4-Pad1)*
X118110000Y-129540000D03*
G04 #@! TD*
D15*
G04 #@! TO.P,R6,1*
G04 #@! TO.N,Net-(C6-Pad1)*
X142875000Y-109220000D03*
D19*
G04 #@! TO.P,R6,2*
G04 #@! TO.N,Net-(C5-Pad1)*
X142875000Y-129540000D03*
G04 #@! TD*
D20*
G04 #@! TO.P,U1,1*
G04 #@! TO.N,Net-(C1-Pad2)*
X128905000Y-106680000D03*
D21*
G04 #@! TO.P,U1,2*
G04 #@! TO.N,Net-(R4-Pad2)*
X130605000Y-102980000D03*
G04 #@! TO.P,U1,3*
G04 #@! TO.N,GND*
X132305000Y-106680000D03*
G04 #@! TO.P,U1,4*
G04 #@! TO.N,Net-(C6-Pad1)*
X134005000Y-102980000D03*
G04 #@! TO.P,U1,5*
G04 #@! TO.N,VCC*
X135705000Y-106680000D03*
G04 #@! TD*
D22*
G04 #@! TO.N,Net-(C1-Pad1)*
X113110000Y-103505000D02*
X113030000Y-103585000D01*
X122555000Y-103505000D02*
X113110000Y-103505000D01*
D23*
X117090000Y-103505000D02*
X122454991Y-103505000D01*
X117010000Y-103585000D02*
X117090000Y-103505000D01*
X113030000Y-103585000D02*
X117010000Y-103585000D01*
G04 #@! TO.N,Net-(C1-Pad2)*
X122555000Y-113030000D02*
X128905000Y-106680000D01*
X122555000Y-114300000D02*
X122555000Y-113030000D01*
X128230000Y-106680000D02*
X125055000Y-103505000D01*
X128905000Y-106680000D02*
X128230000Y-106680000D01*
D22*
G04 #@! TO.N,VCC*
X135890000Y-106865000D02*
X135705000Y-106680000D01*
D23*
X135705000Y-113215000D02*
X134620000Y-114300000D01*
X135705000Y-106680000D02*
X135705000Y-113215000D01*
G04 #@! TO.N,Net-(C4-Pad1)*
X118110000Y-133985000D02*
X118110000Y-129540000D01*
G04 #@! TO.N,Net-(C6-Pad1)*
X136635000Y-102980000D02*
X142875000Y-109220000D01*
X134005000Y-102980000D02*
X136635000Y-102980000D01*
X138430000Y-127000000D02*
X130810000Y-119380000D01*
X138430000Y-129540000D02*
X138430000Y-127000000D01*
X123825000Y-119380000D02*
X130810000Y-119380000D01*
X113665000Y-129540000D02*
X123825000Y-119380000D01*
X138195000Y-115095000D02*
X142875000Y-115095000D01*
X133910000Y-119380000D02*
X138195000Y-115095000D01*
X130810000Y-119380000D02*
X133910000Y-119380000D01*
X142875000Y-115095000D02*
X142875000Y-109220000D01*
X149200000Y-121920000D02*
X152400000Y-121920000D01*
X142875000Y-115595000D02*
X149200000Y-121920000D01*
X142875000Y-115095000D02*
X142875000Y-115595000D01*
G04 #@! TO.N,Net-(C6-Pad2)*
X151200001Y-115720001D02*
X152400000Y-116920000D01*
X149454990Y-113974990D02*
X151200001Y-115720001D01*
X149454990Y-106095010D02*
X149454990Y-113974990D01*
X152045000Y-103505000D02*
X149454990Y-106095010D01*
X153035000Y-103505000D02*
X152045000Y-103505000D01*
G04 #@! TD*
M02*
