M48
;DRILL file {KiCad (5.0.0)} date 07/25/18 01:58:30
;FORMAT={-:-/ absolute / inch / decimal}
FMAT,2
INCH,TZ
T1C0.0315
T2C0.0433
T3C0.0472
T4C0.0520
T5C0.1063
%
G90
G05
M72
T1
X5.2547Y-5.275
X5.55Y-5.275
X4.825Y-4.075
X4.9234Y-4.075
X5.625Y-4.0266
X5.625Y-4.125
X4.9016Y-5.275
X5.Y-5.275
X4.65Y-5.275
X4.7484Y-5.275
T2
X5.075Y-4.2
X5.1419Y-4.0543
X5.2089Y-4.2
X5.2758Y-4.0543
X5.3427Y-4.2
X5.15Y-4.7
X5.15Y-5.1
X5.45Y-4.7
X5.45Y-5.1
T3
X5.625Y-4.3
X5.625Y-5.1
X5.Y-4.5
X5.Y-5.1
X4.65Y-4.5
X4.65Y-5.1
X6.Y-4.6031
X6.Y-4.8
X4.475Y-4.5
X4.475Y-5.1
X4.825Y-4.5
X4.825Y-5.1
X5.3Y-4.5
X5.3Y-5.1
T4
X4.45Y-4.0781
X4.45Y-4.275
X6.025Y-5.075
X6.025Y-5.2719
X6.025Y-4.075
X6.025Y-4.2719
T5
X6.1Y-5.55
X4.375Y-5.55
X4.375Y-3.8
X6.1Y-3.8
T0
M30
