G04 #@! TF.GenerationSoftware,KiCad,Pcbnew,(5.0.0)*
G04 #@! TF.CreationDate,2018-07-25T01:58:25+02:00*
G04 #@! TF.ProjectId,tda2030MonoAmplifier,746461323033304D6F6E6F416D706C69,rev?*
G04 #@! TF.SameCoordinates,Original*
G04 #@! TF.FileFunction,Copper,L1,Top,Signal*
G04 #@! TF.FilePolarity,Positive*
%FSLAX46Y46*%
G04 Gerber Fmt 4.6, Leading zero omitted, Abs format (unit mm)*
G04 Created by KiCad (PCBNEW (5.0.0)) date 07/25/18 01:58:25*
%MOMM*%
%LPD*%
G01*
G04 APERTURE LIST*
G04 #@! TA.AperFunction,ComponentPad*
%ADD10R,3.960000X1.980000*%
G04 #@! TD*
G04 #@! TA.AperFunction,ComponentPad*
%ADD11O,3.960000X1.980000*%
G04 #@! TD*
G04 #@! TA.AperFunction,ComponentPad*
%ADD12R,1.600000X1.600000*%
G04 #@! TD*
G04 #@! TA.AperFunction,ComponentPad*
%ADD13C,1.600000*%
G04 #@! TD*
G04 #@! TA.AperFunction,ComponentPad*
%ADD14R,2.400000X2.400000*%
G04 #@! TD*
G04 #@! TA.AperFunction,ComponentPad*
%ADD15C,2.400000*%
G04 #@! TD*
G04 #@! TA.AperFunction,ComponentPad*
%ADD16O,2.200000X2.200000*%
G04 #@! TD*
G04 #@! TA.AperFunction,ComponentPad*
%ADD17R,2.200000X2.200000*%
G04 #@! TD*
G04 #@! TA.AperFunction,ComponentPad*
%ADD18C,5.400000*%
G04 #@! TD*
G04 #@! TA.AperFunction,ComponentPad*
%ADD19O,2.400000X2.400000*%
G04 #@! TD*
G04 #@! TA.AperFunction,ComponentPad*
%ADD20R,1.800000X1.800000*%
G04 #@! TD*
G04 #@! TA.AperFunction,ComponentPad*
%ADD21O,1.800000X1.800000*%
G04 #@! TD*
G04 #@! TA.AperFunction,Conductor*
%ADD22C,1.500000*%
G04 #@! TD*
G04 #@! TA.AperFunction,Conductor*
%ADD23C,2.000000*%
G04 #@! TD*
G04 APERTURE END LIST*
D10*
G04 #@! TO.P,Speaker,1*
G04 #@! TO.N,Net-(C6-Pad2)*
X153035000Y-103505000D03*
D11*
G04 #@! TO.P,Speaker,2*
G04 #@! TO.N,GND*
X153035000Y-108505000D03*
G04 #@! TD*
D12*
G04 #@! TO.P,C1,1*
G04 #@! TO.N,Net-(C1-Pad1)*
X122555000Y-103505000D03*
D13*
G04 #@! TO.P,C1,2*
G04 #@! TO.N,Net-(C1-Pad2)*
X125055000Y-103505000D03*
G04 #@! TD*
D12*
G04 #@! TO.P,C2,1*
G04 #@! TO.N,Net-(C2-Pad1)*
X124500000Y-133985000D03*
D13*
G04 #@! TO.P,C2,2*
G04 #@! TO.N,GND*
X127000000Y-133985000D03*
G04 #@! TD*
G04 #@! TO.P,C3,2*
G04 #@! TO.N,GND*
X142875000Y-102275000D03*
D12*
G04 #@! TO.P,C3,1*
G04 #@! TO.N,VCC*
X142875000Y-104775000D03*
G04 #@! TD*
G04 #@! TO.P,C4,1*
G04 #@! TO.N,Net-(C4-Pad1)*
X118110000Y-133985000D03*
D13*
G04 #@! TO.P,C4,2*
G04 #@! TO.N,GND*
X120610000Y-133985000D03*
G04 #@! TD*
G04 #@! TO.P,C5,1*
G04 #@! TO.N,Net-(C5-Pad1)*
X140970000Y-133985000D03*
G04 #@! TO.P,C5,2*
G04 #@! TO.N,GND*
X133470000Y-133985000D03*
G04 #@! TD*
D14*
G04 #@! TO.P,C6,1*
G04 #@! TO.N,Net-(C6-Pad1)*
X152400000Y-121920000D03*
D15*
G04 #@! TO.P,C6,2*
G04 #@! TO.N,Net-(C6-Pad2)*
X152400000Y-116920000D03*
G04 #@! TD*
D16*
G04 #@! TO.P,D1,2*
G04 #@! TO.N,Net-(C6-Pad1)*
X138430000Y-129540000D03*
D17*
G04 #@! TO.P,D1,1*
G04 #@! TO.N,VCC*
X138430000Y-119380000D03*
G04 #@! TD*
G04 #@! TO.P,D2,1*
G04 #@! TO.N,Net-(C6-Pad1)*
X130810000Y-119380000D03*
D16*
G04 #@! TO.P,D2,2*
G04 #@! TO.N,GND*
X130810000Y-129540000D03*
G04 #@! TD*
D10*
G04 #@! TO.P,IN,1*
G04 #@! TO.N,GND*
X113030000Y-108585000D03*
D11*
G04 #@! TO.P,IN,2*
G04 #@! TO.N,Net-(C1-Pad1)*
X113030000Y-103585000D03*
G04 #@! TD*
G04 #@! TO.P,Power,2*
G04 #@! TO.N,GND*
X153035000Y-133905000D03*
D10*
G04 #@! TO.P,Power,1*
G04 #@! TO.N,VCC*
X153035000Y-128905000D03*
G04 #@! TD*
D18*
G04 #@! TO.P,MH1,1*
G04 #@! TO.N,Net-(MH1-Pad1)*
X154940000Y-96520000D03*
G04 #@! TD*
G04 #@! TO.P,MH2,1*
G04 #@! TO.N,Net-(MH2-Pad1)*
X111125000Y-140970000D03*
G04 #@! TD*
G04 #@! TO.P,MH3,1*
G04 #@! TO.N,Net-(MH3-Pad1)*
X154940000Y-140970000D03*
G04 #@! TD*
G04 #@! TO.P,MH4,1*
G04 #@! TO.N,Net-(MH4-Pad1)*
X111125000Y-96520000D03*
G04 #@! TD*
D19*
G04 #@! TO.P,R1,2*
G04 #@! TO.N,GND*
X127000000Y-129540000D03*
D15*
G04 #@! TO.P,R1,1*
G04 #@! TO.N,Net-(C2-Pad1)*
X127000000Y-114300000D03*
G04 #@! TD*
G04 #@! TO.P,R2,1*
G04 #@! TO.N,Net-(C2-Pad1)*
X122555000Y-129540000D03*
D19*
G04 #@! TO.P,R2,2*
G04 #@! TO.N,Net-(C1-Pad2)*
X122555000Y-114300000D03*
G04 #@! TD*
D15*
G04 #@! TO.P,R3,1*
G04 #@! TO.N,VCC*
X134620000Y-114300000D03*
D19*
G04 #@! TO.P,R3,2*
G04 #@! TO.N,Net-(C2-Pad1)*
X134620000Y-129540000D03*
G04 #@! TD*
G04 #@! TO.P,R4,2*
G04 #@! TO.N,Net-(R4-Pad2)*
X113665000Y-114300000D03*
D15*
G04 #@! TO.P,R4,1*
G04 #@! TO.N,Net-(C6-Pad1)*
X113665000Y-129540000D03*
G04 #@! TD*
G04 #@! TO.P,R5,1*
G04 #@! TO.N,Net-(R4-Pad2)*
X118110000Y-114300000D03*
D19*
G04 #@! TO.P,R5,2*
G04 #@! TO.N,Net-(C4-Pad1)*
X118110000Y-129540000D03*
G04 #@! TD*
D15*
G04 #@! TO.P,R6,1*
G04 #@! TO.N,Net-(C6-Pad1)*
X142875000Y-109220000D03*
D19*
G04 #@! TO.P,R6,2*
G04 #@! TO.N,Net-(C5-Pad1)*
X142875000Y-129540000D03*
G04 #@! TD*
D20*
G04 #@! TO.P,U1,1*
G04 #@! TO.N,Net-(C1-Pad2)*
X128905000Y-106680000D03*
D21*
G04 #@! TO.P,U1,2*
G04 #@! TO.N,Net-(R4-Pad2)*
X130605000Y-102980000D03*
G04 #@! TO.P,U1,3*
G04 #@! TO.N,GND*
X132305000Y-106680000D03*
G04 #@! TO.P,U1,4*
G04 #@! TO.N,Net-(C6-Pad1)*
X134005000Y-102980000D03*
G04 #@! TO.P,U1,5*
G04 #@! TO.N,VCC*
X135705000Y-106680000D03*
G04 #@! TD*
D22*
G04 #@! TO.N,Net-(C2-Pad1)*
X124500000Y-131485000D02*
X122555000Y-129540000D01*
X124500000Y-133985000D02*
X124500000Y-131485000D01*
D23*
X123754999Y-128340001D02*
X122555000Y-129540000D01*
X125355001Y-126739999D02*
X123754999Y-128340001D01*
X132006001Y-126739999D02*
X125355001Y-126739999D01*
X134620000Y-129353998D02*
X132006001Y-126739999D01*
X134620000Y-129540000D02*
X134620000Y-129353998D01*
X125800001Y-126294999D02*
X125355001Y-126739999D01*
X125800001Y-115499999D02*
X125800001Y-126294999D01*
X127000000Y-114300000D02*
X125800001Y-115499999D01*
D22*
G04 #@! TO.N,GND*
X134455001Y-108830001D02*
X133204999Y-107579999D01*
X136737001Y-108830001D02*
X134455001Y-108830001D01*
X137855001Y-107712001D02*
X136737001Y-108830001D01*
X137855001Y-106163629D02*
X137855001Y-107712001D01*
X133204999Y-107579999D02*
X132305000Y-106680000D01*
D23*
X153035000Y-111495000D02*
X153035000Y-108505000D01*
X156380000Y-114840000D02*
X153035000Y-111495000D01*
X156380000Y-130915000D02*
X156380000Y-114840000D01*
X152400000Y-133905000D02*
X153390000Y-133905000D01*
X144006370Y-102275000D02*
X142875000Y-102275000D01*
X145815000Y-102275000D02*
X144006370Y-102275000D01*
X152045000Y-108505000D02*
X145815000Y-102275000D01*
X153035000Y-108505000D02*
X152045000Y-108505000D01*
X132305000Y-107952792D02*
X132305000Y-106680000D01*
X132305000Y-107960002D02*
X132305000Y-107952792D01*
X131085001Y-109180001D02*
X132305000Y-107960002D01*
X117605001Y-109180001D02*
X131085001Y-109180001D01*
X117010000Y-108585000D02*
X117605001Y-109180001D01*
X113030000Y-108585000D02*
X117010000Y-108585000D01*
X133470000Y-133985000D02*
X127000000Y-133985000D01*
X127000000Y-133985000D02*
X127000000Y-129540000D01*
X127000000Y-129540000D02*
X130810000Y-129540000D01*
X121409999Y-134784999D02*
X120610000Y-133985000D01*
X123010001Y-136385001D02*
X121409999Y-134784999D01*
X126580001Y-136385001D02*
X123010001Y-136385001D01*
X127000000Y-135965002D02*
X126580001Y-136385001D01*
X127000000Y-133985000D02*
X127000000Y-135965002D01*
D22*
X141743630Y-102275000D02*
X137855001Y-106163629D01*
X142875000Y-102275000D02*
X141743630Y-102275000D01*
D23*
X148420000Y-136895000D02*
X136380000Y-136895000D01*
X136380000Y-136895000D02*
X134269999Y-134784999D01*
X134269999Y-134784999D02*
X133470000Y-133985000D01*
X151410000Y-133905000D02*
X148420000Y-136895000D01*
X152400000Y-133905000D02*
X151410000Y-133905000D01*
X152045000Y-133905000D02*
X153035000Y-133905000D01*
X149055000Y-136895000D02*
X152045000Y-133905000D01*
X148420000Y-136895000D02*
X149055000Y-136895000D01*
X153390000Y-133905000D02*
X156380000Y-130915000D01*
X153035000Y-133905000D02*
X153390000Y-133905000D01*
D22*
G04 #@! TO.N,VCC*
X140424999Y-107225001D02*
X140424999Y-108495001D01*
X142875000Y-104775000D02*
X140424999Y-107225001D01*
D23*
X147955000Y-128905000D02*
X138430000Y-119380000D01*
X152400000Y-128905000D02*
X147955000Y-128905000D01*
X138430000Y-118110000D02*
X134620000Y-114300000D01*
X138430000Y-119380000D02*
X138430000Y-118110000D01*
X134620000Y-114300000D02*
X140074999Y-108845001D01*
D22*
X140424999Y-108495001D02*
X140074999Y-108845001D01*
D23*
X147955000Y-128905000D02*
X153035000Y-128905000D01*
G04 #@! TO.N,Net-(C5-Pad1)*
X142875000Y-132080000D02*
X140970000Y-133985000D01*
X142875000Y-129540000D02*
X142875000Y-132080000D01*
G04 #@! TO.N,Net-(R4-Pad2)*
X118110000Y-114300000D02*
X113665000Y-114300000D01*
X128590000Y-100965000D02*
X130605000Y-102980000D01*
X110997173Y-100965000D02*
X128590000Y-100965000D01*
X109449999Y-102512174D02*
X110997173Y-100965000D01*
X109449999Y-111782055D02*
X109449999Y-102512174D01*
X113665000Y-114300000D02*
X111967944Y-114300000D01*
X111967944Y-114300000D02*
X109449999Y-111782055D01*
G04 #@! TD*
M02*
