G04 #@! TF.GenerationSoftware,KiCad,Pcbnew,(5.0.0)*
G04 #@! TF.CreationDate,2018-07-25T01:58:25+02:00*
G04 #@! TF.ProjectId,tda2030MonoAmplifier,746461323033304D6F6E6F416D706C69,rev?*
G04 #@! TF.SameCoordinates,Original*
G04 #@! TF.FileFunction,Soldermask,Bot*
G04 #@! TF.FilePolarity,Negative*
%FSLAX46Y46*%
G04 Gerber Fmt 4.6, Leading zero omitted, Abs format (unit mm)*
G04 Created by KiCad (PCBNEW (5.0.0)) date 07/25/18 01:58:25*
%MOMM*%
%LPD*%
G01*
G04 APERTURE LIST*
%ADD10R,4.360000X2.380000*%
%ADD11O,4.360000X2.380000*%
%ADD12R,2.000000X2.000000*%
%ADD13C,2.000000*%
%ADD14R,2.800000X2.800000*%
%ADD15C,2.800000*%
%ADD16O,2.600000X2.600000*%
%ADD17R,2.600000X2.600000*%
%ADD18C,5.800000*%
%ADD19O,2.800000X2.800000*%
%ADD20R,2.200000X2.200000*%
%ADD21O,2.200000X2.200000*%
G04 APERTURE END LIST*
D10*
G04 #@! TO.C,Speaker*
X153035000Y-103505000D03*
D11*
X153035000Y-108505000D03*
G04 #@! TD*
D12*
G04 #@! TO.C,C1*
X122555000Y-103505000D03*
D13*
X125055000Y-103505000D03*
G04 #@! TD*
D12*
G04 #@! TO.C,C2*
X124500000Y-133985000D03*
D13*
X127000000Y-133985000D03*
G04 #@! TD*
G04 #@! TO.C,C3*
X142875000Y-102275000D03*
D12*
X142875000Y-104775000D03*
G04 #@! TD*
G04 #@! TO.C,C4*
X118110000Y-133985000D03*
D13*
X120610000Y-133985000D03*
G04 #@! TD*
G04 #@! TO.C,C5*
X140970000Y-133985000D03*
X133470000Y-133985000D03*
G04 #@! TD*
D14*
G04 #@! TO.C,C6*
X152400000Y-121920000D03*
D15*
X152400000Y-116920000D03*
G04 #@! TD*
D16*
G04 #@! TO.C,D1*
X138430000Y-129540000D03*
D17*
X138430000Y-119380000D03*
G04 #@! TD*
G04 #@! TO.C,D2*
X130810000Y-119380000D03*
D16*
X130810000Y-129540000D03*
G04 #@! TD*
D10*
G04 #@! TO.C,IN*
X113030000Y-108585000D03*
D11*
X113030000Y-103585000D03*
G04 #@! TD*
G04 #@! TO.C,Power*
X153035000Y-133905000D03*
D10*
X153035000Y-128905000D03*
G04 #@! TD*
D18*
G04 #@! TO.C,MH1*
X154940000Y-96520000D03*
G04 #@! TD*
G04 #@! TO.C,MH2*
X111125000Y-140970000D03*
G04 #@! TD*
G04 #@! TO.C,MH3*
X154940000Y-140970000D03*
G04 #@! TD*
G04 #@! TO.C,MH4*
X111125000Y-96520000D03*
G04 #@! TD*
D19*
G04 #@! TO.C,R1*
X127000000Y-129540000D03*
D15*
X127000000Y-114300000D03*
G04 #@! TD*
G04 #@! TO.C,R2*
X122555000Y-129540000D03*
D19*
X122555000Y-114300000D03*
G04 #@! TD*
D15*
G04 #@! TO.C,R3*
X134620000Y-114300000D03*
D19*
X134620000Y-129540000D03*
G04 #@! TD*
G04 #@! TO.C,R4*
X113665000Y-114300000D03*
D15*
X113665000Y-129540000D03*
G04 #@! TD*
G04 #@! TO.C,R5*
X118110000Y-114300000D03*
D19*
X118110000Y-129540000D03*
G04 #@! TD*
D15*
G04 #@! TO.C,R6*
X142875000Y-109220000D03*
D19*
X142875000Y-129540000D03*
G04 #@! TD*
D20*
G04 #@! TO.C,U1*
X128905000Y-106680000D03*
D21*
X130605000Y-102980000D03*
X132305000Y-106680000D03*
X134005000Y-102980000D03*
X135705000Y-106680000D03*
G04 #@! TD*
M02*
