M48
;DRILL file {KiCad (5.0.0)} date 07/24/18 20:25:48
;FORMAT={-:-/ absolute / inch / decimal}
FMAT,2
INCH,TZ
T1C0.0157
T2C0.0315
T3C0.0433
T4C0.0472
T5C0.0520
T6C0.1063
%
G90
G05
M72
T1
X2.9039Y-3.
T2
X3.05Y-3.2016
X3.05Y-3.3
X1.65Y-2.95
X1.7484Y-2.95
X1.65Y-2.65
X1.7484Y-2.65
X2.25Y-2.9016
X2.25Y-3.
X3.05Y-2.3
X3.05Y-2.3984
X1.95Y-2.9016
X1.95Y-3.
X3.8Y-2.2
X3.8Y-2.4953
X2.25Y-2.6
X2.25Y-2.6984
X3.8Y-3.1047
X3.8Y-3.4
X1.95Y-2.6
X1.95Y-2.6984
T3
X2.45Y-2.35
X2.85Y-2.35
X1.9323Y-3.4
X1.9992Y-3.5457
X2.0661Y-3.4
X2.1331Y-3.5457
X2.2Y-3.4
X2.45Y-3.25
X2.85Y-3.25
X1.925Y-2.2
X1.9919Y-2.0543
X2.0589Y-2.2
X2.1258Y-2.0543
X2.1927Y-2.2
X2.45Y-3.1
X2.85Y-3.1
X2.45Y-2.5
X2.85Y-2.5
T4
X1.1Y-1.95
X1.7Y-1.95
X3.25Y-1.95
X4.05Y-1.95
X1.1Y-3.45
X1.7Y-3.45
X3.35Y-3.25
X3.5469Y-3.25
X2.45Y-3.65
X3.05Y-3.65
X2.45Y-2.15
X3.05Y-2.15
X3.35Y-2.35
X3.5469Y-2.35
X3.25Y-3.65
X4.05Y-3.65
X1.1Y-3.65
X1.7Y-3.65
X1.1Y-2.15
X1.7Y-2.15
X1.1Y-3.25
X1.7Y-3.25
X1.1Y-2.35
X1.7Y-2.35
X2.45Y-3.45
X3.05Y-3.45
X2.45Y-1.95
X3.05Y-1.95
T5
X4.2Y-2.65
X4.2Y-2.8469
X4.2Y-3.1
X4.2Y-3.2969
X1.3Y-2.6063
X1.3Y-2.8031
X1.3Y-3.
X4.2Y-2.2
X4.2Y-2.3969
T6
X0.875Y-1.95
X0.875Y-3.6
X4.3Y-1.95
X4.3Y-3.6
T0
M30
