%TF.GenerationSoftware,KiCad,Pcbnew,(5.0.0)*%
%TF.CreationDate,2018-07-24T20:25:44+02:00*%
%TF.ProjectId,tda2030StereoAmplifier,7464613230333053746572656F416D70,rev?*%
%TF.SameCoordinates,Original*%
%TF.FileFunction,Copper,L1,Top,Signal*%
%TF.FilePolarity,Positive*%
%FSLAX46Y46*%
G04 Gerber Fmt 4.6, Leading zero omitted, Abs format (unit mm)*
G04 Created by KiCad (PCBNEW (5.0.0)) date 07/24/18 20:25:44*
%MOMM*%
%LPD*%
G01*
G04 APERTURE LIST*
%ADD10C,0.150000*%
%ADD11C,5.400000*%
%ADD12R,1.600000X1.600000*%
%ADD13C,1.600000*%
%ADD14O,1.800000X1.800000*%
%ADD15R,1.800000X1.800000*%
%ADD16C,2.400000*%
%ADD17O,2.400000X2.400000*%
%ADD18R,3.960000X1.980000*%
%ADD19O,3.960000X1.980000*%
%ADD20R,2.400000X2.400000*%
%ADD21O,2.200000X2.200000*%
%ADD22R,2.200000X2.200000*%
%ADD23C,0.800000*%
%ADD24C,0.250000*%
%ADD25C,0.900000*%
%ADD26C,1.400000*%
G04 APERTURE END LIST*
D10*
X17780000Y-95885000D02*
X117475000Y-95885000D01*
X17780000Y-95885000D02*
X17780000Y-46355000D01*
X117475000Y-46355000D02*
X117475000Y-95885000D01*
X17780000Y-46355000D02*
X117475000Y-46355000D01*
D11*
X22225000Y-91440000D03*
X22225000Y-49530000D03*
X109220000Y-49530000D03*
X109220000Y-91440000D03*
D12*
X41910000Y-67310000D03*
D13*
X44410000Y-67310000D03*
D12*
X41910000Y-74930000D03*
D13*
X44410000Y-74930000D03*
X49530000Y-68540000D03*
D12*
X49530000Y-66040000D03*
X49530000Y-76200000D03*
D13*
X49530000Y-73700000D03*
D12*
X57150000Y-66040000D03*
D13*
X57150000Y-68540000D03*
D14*
X49080000Y-86360000D03*
X50780000Y-90060000D03*
X52480000Y-86360000D03*
X54180000Y-90060000D03*
D15*
X55880000Y-86360000D03*
X48895000Y-55880000D03*
D14*
X50595000Y-52180000D03*
X52295000Y-55880000D03*
X53995000Y-52180000D03*
X55695000Y-55880000D03*
D16*
X43180000Y-54610000D03*
D17*
X27940000Y-54610000D03*
D18*
X106680000Y-67310000D03*
D19*
X106680000Y-72310000D03*
D13*
X57150000Y-73700000D03*
D12*
X57150000Y-76200000D03*
D13*
X77470000Y-60920000D03*
D12*
X77470000Y-58420000D03*
X77470000Y-83820000D03*
D13*
X77470000Y-81320000D03*
X96520000Y-55880000D03*
X96520000Y-63380000D03*
X96520000Y-78860000D03*
X96520000Y-86360000D03*
D16*
X90090000Y-59690000D03*
D20*
X85090000Y-59690000D03*
X85090000Y-82550000D03*
D16*
X90090000Y-82550000D03*
D21*
X62230000Y-63500000D03*
D22*
X72390000Y-63500000D03*
X72390000Y-59690000D03*
D21*
X62230000Y-59690000D03*
X62230000Y-82550000D03*
D22*
X72390000Y-82550000D03*
X72390000Y-78740000D03*
D21*
X62230000Y-78740000D03*
D19*
X33020000Y-66200000D03*
X33020000Y-71200000D03*
D18*
X33020000Y-76200000D03*
D19*
X106680000Y-60880000D03*
D18*
X106680000Y-55880000D03*
X106680000Y-78740000D03*
D19*
X106680000Y-83740000D03*
D17*
X27940000Y-87630000D03*
D16*
X43180000Y-87630000D03*
D17*
X27940000Y-59690000D03*
D16*
X43180000Y-59690000D03*
X43180000Y-82550000D03*
D17*
X27940000Y-82550000D03*
D16*
X43180000Y-49530000D03*
D17*
X27940000Y-49530000D03*
X27940000Y-92710000D03*
D16*
X43180000Y-92710000D03*
D17*
X62230000Y-49530000D03*
D16*
X77470000Y-49530000D03*
X62230000Y-54610000D03*
D17*
X77470000Y-54610000D03*
D16*
X62230000Y-87630000D03*
D17*
X77470000Y-87630000D03*
X62230000Y-92710000D03*
D16*
X77470000Y-92710000D03*
D17*
X102870000Y-49530000D03*
D16*
X82550000Y-49530000D03*
X82550000Y-92710000D03*
D17*
X102870000Y-92710000D03*
D23*
X73760002Y-76200000D03*
D24*
X33020000Y-71200000D02*
X46870000Y-71200000D01*
X46870000Y-71200000D02*
X47030000Y-71200000D01*
X46870000Y-71200000D02*
X54490000Y-71200000D01*
D25*
X33020000Y-71200000D02*
X54650000Y-71200000D01*
X46870000Y-71200000D02*
X49530000Y-68540000D01*
X33020000Y-71200000D02*
X32030000Y-71200000D01*
D26*
X54490000Y-71200000D02*
X57150000Y-68540000D01*
X33020000Y-71200000D02*
X54490000Y-71200000D01*
X54650000Y-71200000D02*
X57150000Y-73700000D01*
X54490000Y-71200000D02*
X54650000Y-71200000D01*
X47030000Y-71040000D02*
X49530000Y-68540000D01*
X47030000Y-71200000D02*
X47030000Y-71040000D01*
X47030000Y-71200000D02*
X49530000Y-73700000D01*
X52480000Y-85087208D02*
X52480000Y-86360000D01*
X52480000Y-75518630D02*
X52480000Y-85087208D01*
X50661370Y-73700000D02*
X52480000Y-75518630D01*
X49530000Y-73700000D02*
X50661370Y-73700000D01*
X61130001Y-81450001D02*
X62230000Y-82550000D01*
X60179999Y-80499999D02*
X61130001Y-81450001D01*
X60179999Y-75598629D02*
X60179999Y-80499999D01*
X58281370Y-73700000D02*
X60179999Y-75598629D01*
X57150000Y-73700000D02*
X58281370Y-73700000D01*
X62230000Y-82550000D02*
X68580000Y-76200000D01*
X77470000Y-80188630D02*
X77470000Y-81320000D01*
X77470000Y-79909998D02*
X77470000Y-80188630D01*
X73760002Y-76200000D02*
X73760002Y-76200000D01*
X68580000Y-76200000D02*
X73760002Y-76200000D01*
X61130001Y-60789999D02*
X62230000Y-59690000D01*
X60179999Y-61740001D02*
X61130001Y-60789999D01*
X60179999Y-66641371D02*
X60179999Y-61740001D01*
X58281370Y-68540000D02*
X60179999Y-66641371D01*
X57150000Y-68540000D02*
X58281370Y-68540000D01*
X56105000Y-59690000D02*
X52295000Y-55880000D01*
X62230000Y-59690000D02*
X56105000Y-59690000D01*
X73760002Y-76200000D02*
X77470000Y-79909998D01*
D25*
X43180000Y-59690000D02*
X49530000Y-66040000D01*
X49530000Y-76200000D02*
X43180000Y-82550000D01*
X43180000Y-82550000D02*
X43180000Y-87630000D01*
X38100000Y-92710000D02*
X43180000Y-87630000D01*
X27940000Y-92710000D02*
X38100000Y-92710000D01*
X48895000Y-86175000D02*
X49080000Y-86360000D01*
X43180000Y-92260000D02*
X49080000Y-86360000D01*
X43180000Y-92710000D02*
X43180000Y-92260000D01*
D26*
X103300000Y-67310000D02*
X106680000Y-67310000D01*
X78700000Y-67310000D02*
X103300000Y-67310000D01*
X74890000Y-63500000D02*
X78700000Y-67310000D01*
X72390000Y-63500000D02*
X74890000Y-63500000D01*
X49080000Y-86810000D02*
X43180000Y-92710000D01*
X49080000Y-86360000D02*
X49080000Y-86810000D01*
D25*
X105690000Y-78740000D02*
X106680000Y-78740000D01*
X103800000Y-80630000D02*
X105690000Y-78740000D01*
X103800000Y-81620000D02*
X103800000Y-80630000D01*
X102870000Y-82550000D02*
X103800000Y-81620000D01*
X90090000Y-82550000D02*
X102870000Y-82550000D01*
M02*
