%TF.GenerationSoftware,KiCad,Pcbnew,(5.0.0)*%
%TF.CreationDate,2018-07-24T20:21:21+02:00*%
%TF.ProjectId,tda2030StereoAmplifier,7464613230333053746572656F416D70,rev?*%
%TF.SameCoordinates,Original*%
%TF.FileFunction,Drawing*%
%FSLAX46Y46*%
G04 Gerber Fmt 4.6, Leading zero omitted, Abs format (unit mm)*
G04 Created by KiCad (PCBNEW (5.0.0)) date 07/24/18 20:21:21*
%MOMM*%
%LPD*%
G01*
G04 APERTURE LIST*
%ADD10C,0.300000*%
%ADD11C,0.150000*%
G04 APERTURE END LIST*
D10*
X130056428Y-65620000D02*
X129056428Y-65620000D01*
X130627857Y-65262857D02*
X129556428Y-64905714D01*
X129556428Y-65834285D01*
X129056428Y-66477142D02*
X129056428Y-66762857D01*
X129127857Y-66905714D01*
X129199285Y-66977142D01*
X129413571Y-67120000D01*
X129699285Y-67191428D01*
X130270714Y-67191428D01*
X130413571Y-67120000D01*
X130485000Y-67048571D01*
X130556428Y-66905714D01*
X130556428Y-66620000D01*
X130485000Y-66477142D01*
X130413571Y-66405714D01*
X130270714Y-66334285D01*
X129913571Y-66334285D01*
X129770714Y-66405714D01*
X129699285Y-66477142D01*
X129627857Y-66620000D01*
X129627857Y-66905714D01*
X129699285Y-67048571D01*
X129770714Y-67120000D01*
X129913571Y-67191428D01*
X129199285Y-67834285D02*
X129127857Y-67905714D01*
X129056428Y-67834285D01*
X129127857Y-67762857D01*
X129199285Y-67834285D01*
X129056428Y-67834285D01*
X130556428Y-69262857D02*
X130556428Y-68548571D01*
X129842142Y-68477142D01*
X129913571Y-68548571D01*
X129985000Y-68691428D01*
X129985000Y-69048571D01*
X129913571Y-69191428D01*
X129842142Y-69262857D01*
X129699285Y-69334285D01*
X129342142Y-69334285D01*
X129199285Y-69262857D01*
X129127857Y-69191428D01*
X129056428Y-69048571D01*
X129056428Y-68691428D01*
X129127857Y-68548571D01*
X129199285Y-68477142D01*
X130556428Y-69834285D02*
X130556428Y-70762857D01*
X129985000Y-70262857D01*
X129985000Y-70477142D01*
X129913571Y-70620000D01*
X129842142Y-70691428D01*
X129699285Y-70762857D01*
X129342142Y-70762857D01*
X129199285Y-70691428D01*
X129127857Y-70620000D01*
X129056428Y-70477142D01*
X129056428Y-70048571D01*
X129127857Y-69905714D01*
X129199285Y-69834285D01*
X130556428Y-71691428D02*
X130556428Y-71834285D01*
X130485000Y-71977142D01*
X130413571Y-72048571D01*
X130270714Y-72120000D01*
X129985000Y-72191428D01*
X129627857Y-72191428D01*
X129342142Y-72120000D01*
X129199285Y-72048571D01*
X129127857Y-71977142D01*
X129056428Y-71834285D01*
X129056428Y-71691428D01*
X129127857Y-71548571D01*
X129199285Y-71477142D01*
X129342142Y-71405714D01*
X129627857Y-71334285D01*
X129985000Y-71334285D01*
X130270714Y-71405714D01*
X130413571Y-71477142D01*
X130485000Y-71548571D01*
X130556428Y-71691428D01*
X129056428Y-73977142D02*
X130056428Y-73977142D01*
X129913571Y-73977142D02*
X129985000Y-74048571D01*
X130056428Y-74191428D01*
X130056428Y-74405714D01*
X129985000Y-74548571D01*
X129842142Y-74620000D01*
X129056428Y-74620000D01*
X129842142Y-74620000D02*
X129985000Y-74691428D01*
X130056428Y-74834285D01*
X130056428Y-75048571D01*
X129985000Y-75191428D01*
X129842142Y-75262857D01*
X129056428Y-75262857D01*
X129056428Y-75977142D02*
X130056428Y-75977142D01*
X129913571Y-75977142D02*
X129985000Y-76048571D01*
X130056428Y-76191428D01*
X130056428Y-76405714D01*
X129985000Y-76548571D01*
X129842142Y-76620000D01*
X129056428Y-76620000D01*
X129842142Y-76620000D02*
X129985000Y-76691428D01*
X130056428Y-76834285D01*
X130056428Y-77048571D01*
X129985000Y-77191428D01*
X129842142Y-77262857D01*
X129056428Y-77262857D01*
X127635000Y-46355000D02*
X127635000Y-95885000D01*
X117475000Y-46355000D02*
X128221421Y-46355000D01*
X117475000Y-95885000D02*
X128221421Y-95885000D01*
X127635000Y-95885000D02*
X127048579Y-94758496D01*
X127635000Y-95885000D02*
X128221421Y-94758496D01*
X127635000Y-46355000D02*
X127048579Y-47481504D01*
X127635000Y-46355000D02*
X128221421Y-47481504D01*
X61556071Y-37313571D02*
X61841785Y-37313571D01*
X61984642Y-37242142D01*
X62056071Y-37170714D01*
X62198928Y-36956428D01*
X62270357Y-36670714D01*
X62270357Y-36099285D01*
X62198928Y-35956428D01*
X62127500Y-35885000D01*
X61984642Y-35813571D01*
X61698928Y-35813571D01*
X61556071Y-35885000D01*
X61484642Y-35956428D01*
X61413214Y-36099285D01*
X61413214Y-36456428D01*
X61484642Y-36599285D01*
X61556071Y-36670714D01*
X61698928Y-36742142D01*
X61984642Y-36742142D01*
X62127500Y-36670714D01*
X62198928Y-36599285D01*
X62270357Y-36456428D01*
X62984642Y-37313571D02*
X63270357Y-37313571D01*
X63413214Y-37242142D01*
X63484642Y-37170714D01*
X63627500Y-36956428D01*
X63698928Y-36670714D01*
X63698928Y-36099285D01*
X63627500Y-35956428D01*
X63556071Y-35885000D01*
X63413214Y-35813571D01*
X63127500Y-35813571D01*
X62984642Y-35885000D01*
X62913214Y-35956428D01*
X62841785Y-36099285D01*
X62841785Y-36456428D01*
X62913214Y-36599285D01*
X62984642Y-36670714D01*
X63127500Y-36742142D01*
X63413214Y-36742142D01*
X63556071Y-36670714D01*
X63627500Y-36599285D01*
X63698928Y-36456428D01*
X64341785Y-37170714D02*
X64413214Y-37242142D01*
X64341785Y-37313571D01*
X64270357Y-37242142D01*
X64341785Y-37170714D01*
X64341785Y-37313571D01*
X65698928Y-35813571D02*
X65413214Y-35813571D01*
X65270357Y-35885000D01*
X65198928Y-35956428D01*
X65056071Y-36170714D01*
X64984642Y-36456428D01*
X64984642Y-37027857D01*
X65056071Y-37170714D01*
X65127500Y-37242142D01*
X65270357Y-37313571D01*
X65556071Y-37313571D01*
X65698928Y-37242142D01*
X65770357Y-37170714D01*
X65841785Y-37027857D01*
X65841785Y-36670714D01*
X65770357Y-36527857D01*
X65698928Y-36456428D01*
X65556071Y-36385000D01*
X65270357Y-36385000D01*
X65127500Y-36456428D01*
X65056071Y-36527857D01*
X64984642Y-36670714D01*
X66556071Y-37313571D02*
X66841785Y-37313571D01*
X66984642Y-37242142D01*
X67056071Y-37170714D01*
X67198928Y-36956428D01*
X67270357Y-36670714D01*
X67270357Y-36099285D01*
X67198928Y-35956428D01*
X67127500Y-35885000D01*
X66984642Y-35813571D01*
X66698928Y-35813571D01*
X66556071Y-35885000D01*
X66484642Y-35956428D01*
X66413214Y-36099285D01*
X66413214Y-36456428D01*
X66484642Y-36599285D01*
X66556071Y-36670714D01*
X66698928Y-36742142D01*
X66984642Y-36742142D01*
X67127500Y-36670714D01*
X67198928Y-36599285D01*
X67270357Y-36456428D01*
X68627500Y-35813571D02*
X67913214Y-35813571D01*
X67841785Y-36527857D01*
X67913214Y-36456428D01*
X68056071Y-36385000D01*
X68413214Y-36385000D01*
X68556071Y-36456428D01*
X68627500Y-36527857D01*
X68698928Y-36670714D01*
X68698928Y-37027857D01*
X68627500Y-37170714D01*
X68556071Y-37242142D01*
X68413214Y-37313571D01*
X68056071Y-37313571D01*
X67913214Y-37242142D01*
X67841785Y-37170714D01*
X70484642Y-37313571D02*
X70484642Y-36313571D01*
X70484642Y-36456428D02*
X70556071Y-36385000D01*
X70698928Y-36313571D01*
X70913214Y-36313571D01*
X71056071Y-36385000D01*
X71127500Y-36527857D01*
X71127500Y-37313571D01*
X71127500Y-36527857D02*
X71198928Y-36385000D01*
X71341785Y-36313571D01*
X71556071Y-36313571D01*
X71698928Y-36385000D01*
X71770357Y-36527857D01*
X71770357Y-37313571D01*
X72484642Y-37313571D02*
X72484642Y-36313571D01*
X72484642Y-36456428D02*
X72556071Y-36385000D01*
X72698928Y-36313571D01*
X72913214Y-36313571D01*
X73056071Y-36385000D01*
X73127500Y-36527857D01*
X73127500Y-37313571D01*
X73127500Y-36527857D02*
X73198928Y-36385000D01*
X73341785Y-36313571D01*
X73556071Y-36313571D01*
X73698928Y-36385000D01*
X73770357Y-36527857D01*
X73770357Y-37313571D01*
X17780000Y-38735000D02*
X117475000Y-38735000D01*
X17780000Y-46355000D02*
X17780000Y-38148579D01*
X117475000Y-46355000D02*
X117475000Y-38148579D01*
X117475000Y-38735000D02*
X116348496Y-39321421D01*
X117475000Y-38735000D02*
X116348496Y-38148579D01*
X17780000Y-38735000D02*
X18906504Y-39321421D01*
X17780000Y-38735000D02*
X18906504Y-38148579D01*
D11*
X17780000Y-95885000D02*
X117475000Y-95885000D01*
D10*
X134136428Y-89813571D02*
X134136428Y-90099285D01*
X134207857Y-90242142D01*
X134279285Y-90313571D01*
X134493571Y-90456428D01*
X134779285Y-90527857D01*
X135350714Y-90527857D01*
X135493571Y-90456428D01*
X135565000Y-90385000D01*
X135636428Y-90242142D01*
X135636428Y-89956428D01*
X135565000Y-89813571D01*
X135493571Y-89742142D01*
X135350714Y-89670714D01*
X134993571Y-89670714D01*
X134850714Y-89742142D01*
X134779285Y-89813571D01*
X134707857Y-89956428D01*
X134707857Y-90242142D01*
X134779285Y-90385000D01*
X134850714Y-90456428D01*
X134993571Y-90527857D01*
X134136428Y-91242142D02*
X134136428Y-91527857D01*
X134207857Y-91670714D01*
X134279285Y-91742142D01*
X134493571Y-91885000D01*
X134779285Y-91956428D01*
X135350714Y-91956428D01*
X135493571Y-91885000D01*
X135565000Y-91813571D01*
X135636428Y-91670714D01*
X135636428Y-91385000D01*
X135565000Y-91242142D01*
X135493571Y-91170714D01*
X135350714Y-91099285D01*
X134993571Y-91099285D01*
X134850714Y-91170714D01*
X134779285Y-91242142D01*
X134707857Y-91385000D01*
X134707857Y-91670714D01*
X134779285Y-91813571D01*
X134850714Y-91885000D01*
X134993571Y-91956428D01*
X134279285Y-92599285D02*
X134207857Y-92670714D01*
X134136428Y-92599285D01*
X134207857Y-92527857D01*
X134279285Y-92599285D01*
X134136428Y-92599285D01*
X135636428Y-93599285D02*
X135636428Y-93742142D01*
X135565000Y-93885000D01*
X135493571Y-93956428D01*
X135350714Y-94027857D01*
X135065000Y-94099285D01*
X134707857Y-94099285D01*
X134422142Y-94027857D01*
X134279285Y-93956428D01*
X134207857Y-93885000D01*
X134136428Y-93742142D01*
X134136428Y-93599285D01*
X134207857Y-93456428D01*
X134279285Y-93385000D01*
X134422142Y-93313571D01*
X134707857Y-93242142D01*
X135065000Y-93242142D01*
X135350714Y-93313571D01*
X135493571Y-93385000D01*
X135565000Y-93456428D01*
X135636428Y-93599285D01*
X135636428Y-95385000D02*
X135636428Y-95099285D01*
X135565000Y-94956428D01*
X135493571Y-94885000D01*
X135279285Y-94742142D01*
X134993571Y-94670714D01*
X134422142Y-94670714D01*
X134279285Y-94742142D01*
X134207857Y-94813571D01*
X134136428Y-94956428D01*
X134136428Y-95242142D01*
X134207857Y-95385000D01*
X134279285Y-95456428D01*
X134422142Y-95527857D01*
X134779285Y-95527857D01*
X134922142Y-95456428D01*
X134993571Y-95385000D01*
X135065000Y-95242142D01*
X135065000Y-94956428D01*
X134993571Y-94813571D01*
X134922142Y-94742142D01*
X134779285Y-94670714D01*
X135636428Y-96456428D02*
X135636428Y-96599285D01*
X135565000Y-96742142D01*
X135493571Y-96813571D01*
X135350714Y-96885000D01*
X135065000Y-96956428D01*
X134707857Y-96956428D01*
X134422142Y-96885000D01*
X134279285Y-96813571D01*
X134207857Y-96742142D01*
X134136428Y-96599285D01*
X134136428Y-96456428D01*
X134207857Y-96313571D01*
X134279285Y-96242142D01*
X134422142Y-96170714D01*
X134707857Y-96099285D01*
X135065000Y-96099285D01*
X135350714Y-96170714D01*
X135493571Y-96242142D01*
X135565000Y-96313571D01*
X135636428Y-96456428D01*
X134136428Y-98742142D02*
X135136428Y-98742142D01*
X134993571Y-98742142D02*
X135065000Y-98813571D01*
X135136428Y-98956428D01*
X135136428Y-99170714D01*
X135065000Y-99313571D01*
X134922142Y-99385000D01*
X134136428Y-99385000D01*
X134922142Y-99385000D02*
X135065000Y-99456428D01*
X135136428Y-99599285D01*
X135136428Y-99813571D01*
X135065000Y-99956428D01*
X134922142Y-100027857D01*
X134136428Y-100027857D01*
X134136428Y-100742142D02*
X135136428Y-100742142D01*
X134993571Y-100742142D02*
X135065000Y-100813571D01*
X135136428Y-100956428D01*
X135136428Y-101170714D01*
X135065000Y-101313571D01*
X134922142Y-101385000D01*
X134136428Y-101385000D01*
X134922142Y-101385000D02*
X135065000Y-101456428D01*
X135136428Y-101599285D01*
X135136428Y-101813571D01*
X135065000Y-101956428D01*
X134922142Y-102027857D01*
X134136428Y-102027857D01*
X132715000Y-46355000D02*
X132715000Y-145415000D01*
X113030000Y-46355000D02*
X133301421Y-46355000D01*
X113030000Y-145415000D02*
X133301421Y-145415000D01*
X132715000Y-145415000D02*
X132128579Y-144288496D01*
X132715000Y-145415000D02*
X133301421Y-144288496D01*
X132715000Y-46355000D02*
X132128579Y-47481504D01*
X132715000Y-46355000D02*
X133301421Y-47481504D01*
X124976428Y-65620000D02*
X123976428Y-65620000D01*
X125547857Y-65262857D02*
X124476428Y-64905714D01*
X124476428Y-65834285D01*
X123976428Y-66477142D02*
X123976428Y-66762857D01*
X124047857Y-66905714D01*
X124119285Y-66977142D01*
X124333571Y-67120000D01*
X124619285Y-67191428D01*
X125190714Y-67191428D01*
X125333571Y-67120000D01*
X125405000Y-67048571D01*
X125476428Y-66905714D01*
X125476428Y-66620000D01*
X125405000Y-66477142D01*
X125333571Y-66405714D01*
X125190714Y-66334285D01*
X124833571Y-66334285D01*
X124690714Y-66405714D01*
X124619285Y-66477142D01*
X124547857Y-66620000D01*
X124547857Y-66905714D01*
X124619285Y-67048571D01*
X124690714Y-67120000D01*
X124833571Y-67191428D01*
X124119285Y-67834285D02*
X124047857Y-67905714D01*
X123976428Y-67834285D01*
X124047857Y-67762857D01*
X124119285Y-67834285D01*
X123976428Y-67834285D01*
X125476428Y-69262857D02*
X125476428Y-68548571D01*
X124762142Y-68477142D01*
X124833571Y-68548571D01*
X124905000Y-68691428D01*
X124905000Y-69048571D01*
X124833571Y-69191428D01*
X124762142Y-69262857D01*
X124619285Y-69334285D01*
X124262142Y-69334285D01*
X124119285Y-69262857D01*
X124047857Y-69191428D01*
X123976428Y-69048571D01*
X123976428Y-68691428D01*
X124047857Y-68548571D01*
X124119285Y-68477142D01*
X125476428Y-69834285D02*
X125476428Y-70762857D01*
X124905000Y-70262857D01*
X124905000Y-70477142D01*
X124833571Y-70620000D01*
X124762142Y-70691428D01*
X124619285Y-70762857D01*
X124262142Y-70762857D01*
X124119285Y-70691428D01*
X124047857Y-70620000D01*
X123976428Y-70477142D01*
X123976428Y-70048571D01*
X124047857Y-69905714D01*
X124119285Y-69834285D01*
X125476428Y-71691428D02*
X125476428Y-71834285D01*
X125405000Y-71977142D01*
X125333571Y-72048571D01*
X125190714Y-72120000D01*
X124905000Y-72191428D01*
X124547857Y-72191428D01*
X124262142Y-72120000D01*
X124119285Y-72048571D01*
X124047857Y-71977142D01*
X123976428Y-71834285D01*
X123976428Y-71691428D01*
X124047857Y-71548571D01*
X124119285Y-71477142D01*
X124262142Y-71405714D01*
X124547857Y-71334285D01*
X124905000Y-71334285D01*
X125190714Y-71405714D01*
X125333571Y-71477142D01*
X125405000Y-71548571D01*
X125476428Y-71691428D01*
X123976428Y-73977142D02*
X124976428Y-73977142D01*
X124833571Y-73977142D02*
X124905000Y-74048571D01*
X124976428Y-74191428D01*
X124976428Y-74405714D01*
X124905000Y-74548571D01*
X124762142Y-74620000D01*
X123976428Y-74620000D01*
X124762142Y-74620000D02*
X124905000Y-74691428D01*
X124976428Y-74834285D01*
X124976428Y-75048571D01*
X124905000Y-75191428D01*
X124762142Y-75262857D01*
X123976428Y-75262857D01*
X123976428Y-75977142D02*
X124976428Y-75977142D01*
X124833571Y-75977142D02*
X124905000Y-76048571D01*
X124976428Y-76191428D01*
X124976428Y-76405714D01*
X124905000Y-76548571D01*
X124762142Y-76620000D01*
X123976428Y-76620000D01*
X124762142Y-76620000D02*
X124905000Y-76691428D01*
X124976428Y-76834285D01*
X124976428Y-77048571D01*
X124905000Y-77191428D01*
X124762142Y-77262857D01*
X123976428Y-77262857D01*
X122555000Y-46355000D02*
X122555000Y-95885000D01*
X113030000Y-46355000D02*
X123141421Y-46355000D01*
X113030000Y-95885000D02*
X123141421Y-95885000D01*
X122555000Y-95885000D02*
X121968579Y-94758496D01*
X122555000Y-95885000D02*
X123141421Y-94758496D01*
X122555000Y-46355000D02*
X121968579Y-47481504D01*
X122555000Y-46355000D02*
X123141421Y-47481504D01*
X124976428Y-115150000D02*
X123976428Y-115150000D01*
X125547857Y-114792857D02*
X124476428Y-114435714D01*
X124476428Y-115364285D01*
X123976428Y-116007142D02*
X123976428Y-116292857D01*
X124047857Y-116435714D01*
X124119285Y-116507142D01*
X124333571Y-116650000D01*
X124619285Y-116721428D01*
X125190714Y-116721428D01*
X125333571Y-116650000D01*
X125405000Y-116578571D01*
X125476428Y-116435714D01*
X125476428Y-116150000D01*
X125405000Y-116007142D01*
X125333571Y-115935714D01*
X125190714Y-115864285D01*
X124833571Y-115864285D01*
X124690714Y-115935714D01*
X124619285Y-116007142D01*
X124547857Y-116150000D01*
X124547857Y-116435714D01*
X124619285Y-116578571D01*
X124690714Y-116650000D01*
X124833571Y-116721428D01*
X124119285Y-117364285D02*
X124047857Y-117435714D01*
X123976428Y-117364285D01*
X124047857Y-117292857D01*
X124119285Y-117364285D01*
X123976428Y-117364285D01*
X125476428Y-118792857D02*
X125476428Y-118078571D01*
X124762142Y-118007142D01*
X124833571Y-118078571D01*
X124905000Y-118221428D01*
X124905000Y-118578571D01*
X124833571Y-118721428D01*
X124762142Y-118792857D01*
X124619285Y-118864285D01*
X124262142Y-118864285D01*
X124119285Y-118792857D01*
X124047857Y-118721428D01*
X123976428Y-118578571D01*
X123976428Y-118221428D01*
X124047857Y-118078571D01*
X124119285Y-118007142D01*
X125476428Y-119364285D02*
X125476428Y-120292857D01*
X124905000Y-119792857D01*
X124905000Y-120007142D01*
X124833571Y-120150000D01*
X124762142Y-120221428D01*
X124619285Y-120292857D01*
X124262142Y-120292857D01*
X124119285Y-120221428D01*
X124047857Y-120150000D01*
X123976428Y-120007142D01*
X123976428Y-119578571D01*
X124047857Y-119435714D01*
X124119285Y-119364285D01*
X125476428Y-121221428D02*
X125476428Y-121364285D01*
X125405000Y-121507142D01*
X125333571Y-121578571D01*
X125190714Y-121650000D01*
X124905000Y-121721428D01*
X124547857Y-121721428D01*
X124262142Y-121650000D01*
X124119285Y-121578571D01*
X124047857Y-121507142D01*
X123976428Y-121364285D01*
X123976428Y-121221428D01*
X124047857Y-121078571D01*
X124119285Y-121007142D01*
X124262142Y-120935714D01*
X124547857Y-120864285D01*
X124905000Y-120864285D01*
X125190714Y-120935714D01*
X125333571Y-121007142D01*
X125405000Y-121078571D01*
X125476428Y-121221428D01*
X123976428Y-123507142D02*
X124976428Y-123507142D01*
X124833571Y-123507142D02*
X124905000Y-123578571D01*
X124976428Y-123721428D01*
X124976428Y-123935714D01*
X124905000Y-124078571D01*
X124762142Y-124150000D01*
X123976428Y-124150000D01*
X124762142Y-124150000D02*
X124905000Y-124221428D01*
X124976428Y-124364285D01*
X124976428Y-124578571D01*
X124905000Y-124721428D01*
X124762142Y-124792857D01*
X123976428Y-124792857D01*
X123976428Y-125507142D02*
X124976428Y-125507142D01*
X124833571Y-125507142D02*
X124905000Y-125578571D01*
X124976428Y-125721428D01*
X124976428Y-125935714D01*
X124905000Y-126078571D01*
X124762142Y-126150000D01*
X123976428Y-126150000D01*
X124762142Y-126150000D02*
X124905000Y-126221428D01*
X124976428Y-126364285D01*
X124976428Y-126578571D01*
X124905000Y-126721428D01*
X124762142Y-126792857D01*
X123976428Y-126792857D01*
X122555000Y-95885000D02*
X122555000Y-145415000D01*
X113030000Y-95885000D02*
X123141421Y-95885000D01*
X113030000Y-145415000D02*
X123141421Y-145415000D01*
X122555000Y-145415000D02*
X121968579Y-144288496D01*
X122555000Y-145415000D02*
X123141421Y-144288496D01*
X122555000Y-95885000D02*
X121968579Y-97011504D01*
X122555000Y-95885000D02*
X123141421Y-97011504D01*
X59333571Y-32868571D02*
X59619285Y-32868571D01*
X59762142Y-32797142D01*
X59833571Y-32725714D01*
X59976428Y-32511428D01*
X60047857Y-32225714D01*
X60047857Y-31654285D01*
X59976428Y-31511428D01*
X59905000Y-31440000D01*
X59762142Y-31368571D01*
X59476428Y-31368571D01*
X59333571Y-31440000D01*
X59262142Y-31511428D01*
X59190714Y-31654285D01*
X59190714Y-32011428D01*
X59262142Y-32154285D01*
X59333571Y-32225714D01*
X59476428Y-32297142D01*
X59762142Y-32297142D01*
X59905000Y-32225714D01*
X59976428Y-32154285D01*
X60047857Y-32011428D01*
X61405000Y-31368571D02*
X60690714Y-31368571D01*
X60619285Y-32082857D01*
X60690714Y-32011428D01*
X60833571Y-31940000D01*
X61190714Y-31940000D01*
X61333571Y-32011428D01*
X61405000Y-32082857D01*
X61476428Y-32225714D01*
X61476428Y-32582857D01*
X61405000Y-32725714D01*
X61333571Y-32797142D01*
X61190714Y-32868571D01*
X60833571Y-32868571D01*
X60690714Y-32797142D01*
X60619285Y-32725714D01*
X62119285Y-32725714D02*
X62190714Y-32797142D01*
X62119285Y-32868571D01*
X62047857Y-32797142D01*
X62119285Y-32725714D01*
X62119285Y-32868571D01*
X62762142Y-31511428D02*
X62833571Y-31440000D01*
X62976428Y-31368571D01*
X63333571Y-31368571D01*
X63476428Y-31440000D01*
X63547857Y-31511428D01*
X63619285Y-31654285D01*
X63619285Y-31797142D01*
X63547857Y-32011428D01*
X62690714Y-32868571D01*
X63619285Y-32868571D01*
X64976428Y-31368571D02*
X64262142Y-31368571D01*
X64190714Y-32082857D01*
X64262142Y-32011428D01*
X64405000Y-31940000D01*
X64762142Y-31940000D01*
X64905000Y-32011428D01*
X64976428Y-32082857D01*
X65047857Y-32225714D01*
X65047857Y-32582857D01*
X64976428Y-32725714D01*
X64905000Y-32797142D01*
X64762142Y-32868571D01*
X64405000Y-32868571D01*
X64262142Y-32797142D01*
X64190714Y-32725714D01*
X65976428Y-31368571D02*
X66119285Y-31368571D01*
X66262142Y-31440000D01*
X66333571Y-31511428D01*
X66405000Y-31654285D01*
X66476428Y-31940000D01*
X66476428Y-32297142D01*
X66405000Y-32582857D01*
X66333571Y-32725714D01*
X66262142Y-32797142D01*
X66119285Y-32868571D01*
X65976428Y-32868571D01*
X65833571Y-32797142D01*
X65762142Y-32725714D01*
X65690714Y-32582857D01*
X65619285Y-32297142D01*
X65619285Y-31940000D01*
X65690714Y-31654285D01*
X65762142Y-31511428D01*
X65833571Y-31440000D01*
X65976428Y-31368571D01*
X68262142Y-32868571D02*
X68262142Y-31868571D01*
X68262142Y-32011428D02*
X68333571Y-31940000D01*
X68476428Y-31868571D01*
X68690714Y-31868571D01*
X68833571Y-31940000D01*
X68905000Y-32082857D01*
X68905000Y-32868571D01*
X68905000Y-32082857D02*
X68976428Y-31940000D01*
X69119285Y-31868571D01*
X69333571Y-31868571D01*
X69476428Y-31940000D01*
X69547857Y-32082857D01*
X69547857Y-32868571D01*
X70262142Y-32868571D02*
X70262142Y-31868571D01*
X70262142Y-32011428D02*
X70333571Y-31940000D01*
X70476428Y-31868571D01*
X70690714Y-31868571D01*
X70833571Y-31940000D01*
X70905000Y-32082857D01*
X70905000Y-32868571D01*
X70905000Y-32082857D02*
X70976428Y-31940000D01*
X71119285Y-31868571D01*
X71333571Y-31868571D01*
X71476428Y-31940000D01*
X71547857Y-32082857D01*
X71547857Y-32868571D01*
X17780000Y-34290000D02*
X113030000Y-34290000D01*
X17780000Y-46355000D02*
X17780000Y-33703579D01*
X113030000Y-46355000D02*
X113030000Y-33703579D01*
X113030000Y-34290000D02*
X111903496Y-34876421D01*
X113030000Y-34290000D02*
X111903496Y-33703579D01*
X17780000Y-34290000D02*
X18906504Y-34876421D01*
X17780000Y-34290000D02*
X18906504Y-33703579D01*
D11*
X17780000Y-95885000D02*
X17780000Y-46355000D01*
X117475000Y-46355000D02*
X117475000Y-95885000D01*
X17780000Y-46355000D02*
X117475000Y-46355000D01*
M02*
