%TF.GenerationSoftware,KiCad,Pcbnew,(5.0.0)*%
%TF.CreationDate,2018-07-24T20:25:44+02:00*%
%TF.ProjectId,tda2030StereoAmplifier,7464613230333053746572656F416D70,rev?*%
%TF.SameCoordinates,Original*%
%TF.FileFunction,Other,Fab,Top*%
%FSLAX46Y46*%
G04 Gerber Fmt 4.6, Leading zero omitted, Abs format (unit mm)*
G04 Created by KiCad (PCBNEW (5.0.0)) date 07/24/18 20:25:44*
%MOMM*%
%LPD*%
G01*
G04 APERTURE LIST*
%ADD10C,0.150000*%
%ADD11C,0.100000*%
%ADD12C,0.135000*%
G04 APERTURE END LIST*
D10*
X17780000Y-95885000D02*
X117475000Y-95885000D01*
X17780000Y-95885000D02*
X17780000Y-46355000D01*
X117475000Y-46355000D02*
X117475000Y-95885000D01*
X17780000Y-46355000D02*
X117475000Y-46355000D01*
D11*
X45660000Y-67310000D02*
G75*
G03X45660000Y-67310000I-2500000J0D01*
G01*
X41026395Y-66222500D02*
X41526395Y-66222500D01*
X41276395Y-65972500D02*
X41276395Y-66472500D01*
X45660000Y-74930000D02*
G75*
G03X45660000Y-74930000I-2500000J0D01*
G01*
X41026395Y-73842500D02*
X41526395Y-73842500D01*
X41276395Y-73592500D02*
X41276395Y-74092500D01*
X51218500Y-64911028D02*
X50588500Y-64911028D01*
X50903500Y-64596028D02*
X50903500Y-65226028D01*
X52680000Y-67290000D02*
G75*
G03X52680000Y-67290000I-3150000J0D01*
G01*
X52680000Y-74950000D02*
G75*
G03X52680000Y-74950000I-3150000J0D01*
G01*
X48156500Y-77643972D02*
X48156500Y-77013972D01*
X47841500Y-77328972D02*
X48471500Y-77328972D01*
X60300000Y-67290000D02*
G75*
G03X60300000Y-67290000I-3150000J0D01*
G01*
X58523500Y-64596028D02*
X58523500Y-65226028D01*
X58838500Y-64911028D02*
X58208500Y-64911028D01*
X49080000Y-90160000D02*
X49080000Y-86360000D01*
X50780000Y-90160000D02*
X50780000Y-90060000D01*
X52480000Y-90160000D02*
X52480000Y-86360000D01*
X54180000Y-90160000D02*
X54180000Y-90060000D01*
X55880000Y-90160000D02*
X55880000Y-86360000D01*
X50630000Y-94560000D02*
X50630000Y-93290000D01*
X54330000Y-94560000D02*
X54330000Y-93290000D01*
X57480000Y-93290000D02*
X47480000Y-93290000D01*
X47480000Y-94560000D02*
X57480000Y-94560000D01*
X47480000Y-90160000D02*
X47480000Y-94560000D01*
X57480000Y-90160000D02*
X47480000Y-90160000D01*
X57480000Y-94560000D02*
X57480000Y-90160000D01*
X47295000Y-47680000D02*
X47295000Y-52080000D01*
X47295000Y-52080000D02*
X57295000Y-52080000D01*
X57295000Y-52080000D02*
X57295000Y-47680000D01*
X57295000Y-47680000D02*
X47295000Y-47680000D01*
X47295000Y-48950000D02*
X57295000Y-48950000D01*
X50445000Y-47680000D02*
X50445000Y-48950000D01*
X54145000Y-47680000D02*
X54145000Y-48950000D01*
X48895000Y-52080000D02*
X48895000Y-55880000D01*
X50595000Y-52080000D02*
X50595000Y-52180000D01*
X52295000Y-52080000D02*
X52295000Y-55880000D01*
X53995000Y-52080000D02*
X53995000Y-52180000D01*
X55695000Y-52080000D02*
X55695000Y-55880000D01*
X40510000Y-56410000D02*
X40510000Y-52810000D01*
X40510000Y-52810000D02*
X30610000Y-52810000D01*
X30610000Y-52810000D02*
X30610000Y-56410000D01*
X30610000Y-56410000D02*
X40510000Y-56410000D01*
X43180000Y-54610000D02*
X40510000Y-54610000D01*
X27940000Y-54610000D02*
X30610000Y-54610000D01*
X104140000Y-66050000D02*
X104140000Y-68590000D01*
X104140000Y-68590000D02*
X106930000Y-68590000D01*
X106930000Y-66050000D02*
X106930000Y-68590000D01*
X104140000Y-66050000D02*
X106930000Y-66050000D01*
X104140000Y-71050000D02*
X104140000Y-73590000D01*
X104140000Y-73590000D02*
X106930000Y-73590000D01*
X106930000Y-71050000D02*
X106930000Y-73590000D01*
X104140000Y-71050000D02*
X106930000Y-71050000D01*
X112900000Y-74920000D02*
X109850000Y-74920000D01*
X112900000Y-74920000D02*
X112900000Y-64730000D01*
X112900000Y-74920000D02*
X112900000Y-75420000D01*
X112900000Y-75420000D02*
X108080000Y-75420000D01*
X108080000Y-75420000D02*
X108330000Y-74920000D01*
X101220000Y-75420000D02*
X101470000Y-74920000D01*
X101470000Y-74920000D02*
X100460000Y-74920000D01*
X102870000Y-75420000D02*
X102620000Y-74920000D01*
X102620000Y-74920000D02*
X101470000Y-74920000D01*
X102870000Y-75420000D02*
X101220000Y-75420000D01*
X100460000Y-70290000D02*
X102360000Y-70290000D01*
X106930000Y-74360000D02*
X102360000Y-74360000D01*
X100460000Y-70290000D02*
X100460000Y-74360000D01*
X100460000Y-74360000D02*
X100460000Y-74920000D01*
X100460000Y-69350000D02*
X102360000Y-69350000D01*
X100460000Y-69350000D02*
X100460000Y-70290000D01*
X106930000Y-65290000D02*
X102360000Y-65290000D01*
X100460000Y-64730000D02*
X100460000Y-65290000D01*
X100460000Y-65290000D02*
X100460000Y-69350000D01*
X102360000Y-70290000D02*
X102360000Y-74360000D01*
X102360000Y-70290000D02*
X106930000Y-70290000D01*
X102360000Y-74360000D02*
X100460000Y-74360000D01*
X102360000Y-69350000D02*
X102360000Y-65290000D01*
X102360000Y-69350000D02*
X106930000Y-69350000D01*
X102360000Y-65290000D02*
X100460000Y-65290000D01*
X103000000Y-73980000D02*
X106170000Y-73980000D01*
X103000000Y-73980000D02*
X103000000Y-70670000D01*
X103000000Y-70670000D02*
X106170000Y-70670000D01*
X103000000Y-68970000D02*
X106170000Y-68970000D01*
X103000000Y-68970000D02*
X103000000Y-65670000D01*
X103000000Y-65670000D02*
X106170000Y-65670000D01*
X106170000Y-65670000D02*
X106170000Y-66050000D01*
X106170000Y-68970000D02*
X106170000Y-68590000D01*
X106170000Y-70670000D02*
X106170000Y-71050000D01*
X106170000Y-73980000D02*
X106170000Y-73590000D01*
X100460000Y-64730000D02*
X107320000Y-64730000D01*
X107320000Y-64730000D02*
X109850000Y-64730000D01*
X108330000Y-74920000D02*
X107320000Y-74920000D01*
X107320000Y-74920000D02*
X102620000Y-74920000D01*
X109850000Y-64730000D02*
X109850000Y-74920000D01*
X109850000Y-64730000D02*
X112900000Y-64730000D01*
X109850000Y-74920000D02*
X108330000Y-74920000D01*
X110110000Y-70290000D02*
X112650000Y-70290000D01*
X112650000Y-70290000D02*
X112650000Y-74360000D01*
X112650000Y-74360000D02*
X110110000Y-74360000D01*
X110110000Y-74360000D02*
X110110000Y-70290000D01*
X110110000Y-69350000D02*
X112650000Y-69350000D01*
X110110000Y-69350000D02*
X110110000Y-65290000D01*
X110110000Y-65290000D02*
X112650000Y-65290000D01*
X112650000Y-69350000D02*
X112650000Y-65290000D01*
X111130000Y-70700000D02*
X111760000Y-73750000D01*
X111000000Y-70830000D02*
X111630000Y-73870000D01*
X111130000Y-65690000D02*
X111760000Y-68750000D01*
X111000000Y-65820000D02*
X111630000Y-68870000D01*
X106930000Y-65290000D02*
X106930000Y-65670000D01*
X106930000Y-69350000D02*
X106930000Y-68970000D01*
X106930000Y-68970000D02*
X106930000Y-65670000D01*
X107320000Y-64730000D02*
X107320000Y-65670000D01*
X107320000Y-65670000D02*
X107320000Y-68970000D01*
X107320000Y-68970000D02*
X107320000Y-70670000D01*
X107320000Y-74920000D02*
X107320000Y-73980000D01*
X107320000Y-73980000D02*
X107320000Y-70670000D01*
X106930000Y-74360000D02*
X106930000Y-73980000D01*
X106930000Y-70290000D02*
X106930000Y-70670000D01*
X106930000Y-70670000D02*
X106930000Y-73980000D01*
X110756005Y-73795532D02*
G75*
G03X111730000Y-73850000I513995J455532D01*
G01*
X110848263Y-70857667D02*
G75*
G03X110800000Y-73840000I1901737J-1522333D01*
G01*
X111741687Y-73848239D02*
G75*
G03X111680000Y-70700000I-1351687J1548239D01*
G01*
X111738699Y-70747028D02*
G75*
G03X110810000Y-70890000I-408699J-432972D01*
G01*
X110766004Y-68795620D02*
G75*
G03X111730000Y-68840000I503996J455620D01*
G01*
X110838582Y-65850171D02*
G75*
G03X110800000Y-68840000I1911418J-1519829D01*
G01*
X111751534Y-68849976D02*
G75*
G03X111680000Y-65690000I-1361534J1549976D01*
G01*
X111738699Y-65747028D02*
G75*
G03X110810000Y-65890000I-408699J-432972D01*
G01*
X55461500Y-77328972D02*
X56091500Y-77328972D01*
X55776500Y-77643972D02*
X55776500Y-77013972D01*
X60300000Y-74950000D02*
G75*
G03X60300000Y-74950000I-3150000J0D01*
G01*
X78672500Y-57976920D02*
X78222500Y-57976920D01*
X78447500Y-57751920D02*
X78447500Y-58201920D01*
X79720000Y-59670000D02*
G75*
G03X79720000Y-59670000I-2250000J0D01*
G01*
X79720000Y-82570000D02*
G75*
G03X79720000Y-82570000I-2250000J0D01*
G01*
X76492500Y-84488080D02*
X76492500Y-84038080D01*
X76267500Y-84263080D02*
X76717500Y-84263080D01*
X98320000Y-55130000D02*
X94720000Y-55130000D01*
X94720000Y-55130000D02*
X94720000Y-64130000D01*
X94720000Y-64130000D02*
X98320000Y-64130000D01*
X98320000Y-64130000D02*
X98320000Y-55130000D01*
X94720000Y-78110000D02*
X94720000Y-87110000D01*
X98320000Y-78110000D02*
X94720000Y-78110000D01*
X98320000Y-87110000D02*
X98320000Y-78110000D01*
X94720000Y-87110000D02*
X98320000Y-87110000D01*
X82848511Y-56327500D02*
X82848511Y-57577500D01*
X82223511Y-56952500D02*
X83473511Y-56952500D01*
X93840000Y-59690000D02*
G75*
G03X93840000Y-59690000I-6250000J0D01*
G01*
X93840000Y-82550000D02*
G75*
G03X93840000Y-82550000I-6250000J0D01*
G01*
X82223511Y-79812500D02*
X83473511Y-79812500D01*
X82848511Y-79187500D02*
X82848511Y-80437500D01*
X69230000Y-64850000D02*
X69230000Y-62150000D01*
X69030000Y-64850000D02*
X69030000Y-62150000D01*
X69130000Y-64850000D02*
X69130000Y-62150000D01*
X62230000Y-63500000D02*
X64710000Y-63500000D01*
X72390000Y-63500000D02*
X69910000Y-63500000D01*
X64710000Y-64850000D02*
X69910000Y-64850000D01*
X64710000Y-62150000D02*
X64710000Y-64850000D01*
X69910000Y-62150000D02*
X64710000Y-62150000D01*
X69910000Y-64850000D02*
X69910000Y-62150000D01*
X69910000Y-61040000D02*
X69910000Y-58340000D01*
X69910000Y-58340000D02*
X64710000Y-58340000D01*
X64710000Y-58340000D02*
X64710000Y-61040000D01*
X64710000Y-61040000D02*
X69910000Y-61040000D01*
X72390000Y-59690000D02*
X69910000Y-59690000D01*
X62230000Y-59690000D02*
X64710000Y-59690000D01*
X69130000Y-61040000D02*
X69130000Y-58340000D01*
X69030000Y-61040000D02*
X69030000Y-58340000D01*
X69230000Y-61040000D02*
X69230000Y-58340000D01*
X69230000Y-83900000D02*
X69230000Y-81200000D01*
X69030000Y-83900000D02*
X69030000Y-81200000D01*
X69130000Y-83900000D02*
X69130000Y-81200000D01*
X62230000Y-82550000D02*
X64710000Y-82550000D01*
X72390000Y-82550000D02*
X69910000Y-82550000D01*
X64710000Y-83900000D02*
X69910000Y-83900000D01*
X64710000Y-81200000D02*
X64710000Y-83900000D01*
X69910000Y-81200000D02*
X64710000Y-81200000D01*
X69910000Y-83900000D02*
X69910000Y-81200000D01*
X69910000Y-80090000D02*
X69910000Y-77390000D01*
X69910000Y-77390000D02*
X64710000Y-77390000D01*
X64710000Y-77390000D02*
X64710000Y-80090000D01*
X64710000Y-80090000D02*
X69910000Y-80090000D01*
X72390000Y-78740000D02*
X69910000Y-78740000D01*
X62230000Y-78740000D02*
X64710000Y-78740000D01*
X69130000Y-80090000D02*
X69130000Y-77390000D01*
X69030000Y-80090000D02*
X69030000Y-77390000D01*
X69230000Y-80090000D02*
X69230000Y-77390000D01*
X27960995Y-77795426D02*
G75*
G03X28880000Y-77640000I399005J435426D01*
G01*
X27948313Y-74691761D02*
G75*
G03X28010000Y-77840000I1351687J-1548239D01*
G01*
X28841737Y-77682333D02*
G75*
G03X28890000Y-74700000I-1901737J1522333D01*
G01*
X28933995Y-74744468D02*
G75*
G03X27960000Y-74690000I-513995J-455532D01*
G01*
X27951301Y-72782972D02*
G75*
G03X28880000Y-72640000I408699J432972D01*
G01*
X27948313Y-69691761D02*
G75*
G03X28010000Y-72840000I1351687J-1548239D01*
G01*
X28841737Y-72682333D02*
G75*
G03X28890000Y-69700000I-1901737J1522333D01*
G01*
X28923996Y-69734380D02*
G75*
G03X27960000Y-69690000I-503996J-455620D01*
G01*
X28923996Y-64654380D02*
G75*
G03X27960000Y-64610000I-503996J-455620D01*
G01*
X28841737Y-67602333D02*
G75*
G03X28890000Y-64620000I-1901737J1522333D01*
G01*
X27948313Y-64611761D02*
G75*
G03X28010000Y-67760000I1351687J-1548239D01*
G01*
X27951301Y-67702972D02*
G75*
G03X28880000Y-67560000I408699J432972D01*
G01*
X32760000Y-72860000D02*
X32760000Y-69560000D01*
X32760000Y-73240000D02*
X32760000Y-72860000D01*
X32760000Y-69180000D02*
X32760000Y-69560000D01*
X32760000Y-74560000D02*
X32760000Y-77870000D01*
X32760000Y-74180000D02*
X32760000Y-74560000D01*
X32760000Y-78250000D02*
X32760000Y-77870000D01*
X28690000Y-77710000D02*
X28060000Y-74670000D01*
X28560000Y-77840000D02*
X27930000Y-74790000D01*
X28690000Y-72710000D02*
X28060000Y-69660000D01*
X28560000Y-72840000D02*
X27930000Y-69790000D01*
X27040000Y-74180000D02*
X27040000Y-78250000D01*
X29580000Y-78250000D02*
X27040000Y-78250000D01*
X29580000Y-74180000D02*
X29580000Y-78250000D01*
X29580000Y-74180000D02*
X27040000Y-74180000D01*
X29580000Y-69180000D02*
X29580000Y-73240000D01*
X27040000Y-69180000D02*
X29580000Y-69180000D01*
X27040000Y-73240000D02*
X27040000Y-69180000D01*
X29580000Y-73240000D02*
X27040000Y-73240000D01*
X29830000Y-78780000D02*
X26790000Y-78780000D01*
X29830000Y-78780000D02*
X29830000Y-68620000D01*
X32370000Y-78780000D02*
X29830000Y-78780000D01*
X39230000Y-78780000D02*
X32370000Y-78780000D01*
X33520000Y-69560000D02*
X33520000Y-69940000D01*
X33520000Y-72860000D02*
X33520000Y-72480000D01*
X33520000Y-74560000D02*
X33520000Y-74940000D01*
X33520000Y-77870000D02*
X33520000Y-77480000D01*
X36690000Y-77870000D02*
X33520000Y-77870000D01*
X36690000Y-74560000D02*
X36690000Y-77870000D01*
X36690000Y-74560000D02*
X33520000Y-74560000D01*
X36690000Y-72860000D02*
X33520000Y-72860000D01*
X36690000Y-69560000D02*
X36690000Y-72860000D01*
X36690000Y-69560000D02*
X33520000Y-69560000D01*
X37330000Y-78250000D02*
X39230000Y-78250000D01*
X37330000Y-74180000D02*
X32760000Y-74180000D01*
X37330000Y-74180000D02*
X37330000Y-78250000D01*
X37330000Y-69180000D02*
X39230000Y-69180000D01*
X37330000Y-73240000D02*
X32760000Y-73240000D01*
X37330000Y-73240000D02*
X37330000Y-69180000D01*
X39230000Y-78250000D02*
X39230000Y-74180000D01*
X39230000Y-78780000D02*
X39230000Y-78250000D01*
X32760000Y-78250000D02*
X37330000Y-78250000D01*
X39230000Y-74180000D02*
X39230000Y-73240000D01*
X39230000Y-74180000D02*
X37330000Y-74180000D01*
X39230000Y-69180000D02*
X39230000Y-68620000D01*
X39230000Y-73240000D02*
X39230000Y-69180000D01*
X32760000Y-69180000D02*
X37330000Y-69180000D01*
X39230000Y-73240000D02*
X37330000Y-73240000D01*
X37070000Y-68180000D02*
X38220000Y-68180000D01*
X38220000Y-68180000D02*
X39230000Y-68180000D01*
X35550000Y-72480000D02*
X32760000Y-72480000D01*
X32760000Y-72480000D02*
X32760000Y-69940000D01*
X35550000Y-69940000D02*
X32760000Y-69940000D01*
X35550000Y-72480000D02*
X35550000Y-69940000D01*
X35550000Y-77480000D02*
X32760000Y-77480000D01*
X32760000Y-77480000D02*
X32760000Y-74940000D01*
X35550000Y-74940000D02*
X32760000Y-74940000D01*
X35550000Y-77480000D02*
X35550000Y-74940000D01*
X35550000Y-67400000D02*
X35550000Y-64860000D01*
X35550000Y-64860000D02*
X32760000Y-64860000D01*
X32760000Y-67400000D02*
X32760000Y-64860000D01*
X35550000Y-67400000D02*
X32760000Y-67400000D01*
X26790000Y-63540000D02*
X29830000Y-63540000D01*
X26790000Y-63540000D02*
X26790000Y-63030000D01*
X26790000Y-63030000D02*
X31610000Y-63030000D01*
X31610000Y-63030000D02*
X31360000Y-63540000D01*
X38470000Y-63030000D02*
X38220000Y-63540000D01*
X38220000Y-63540000D02*
X39230000Y-63540000D01*
X36820000Y-63030000D02*
X37070000Y-63540000D01*
X37070000Y-63540000D02*
X38220000Y-63540000D01*
X36820000Y-63030000D02*
X38470000Y-63030000D01*
X39230000Y-68160000D02*
X37330000Y-68160000D01*
X32760000Y-64100000D02*
X37330000Y-64100000D01*
X39230000Y-64100000D02*
X39230000Y-63540000D01*
X37330000Y-68160000D02*
X37330000Y-64100000D01*
X37330000Y-64100000D02*
X39230000Y-64100000D01*
X36690000Y-64480000D02*
X33520000Y-64480000D01*
X36690000Y-64480000D02*
X36690000Y-67780000D01*
X36690000Y-67780000D02*
X33520000Y-67780000D01*
X33520000Y-67780000D02*
X33520000Y-67400000D01*
X33520000Y-64480000D02*
X33520000Y-64860000D01*
X31360000Y-63540000D02*
X32370000Y-63540000D01*
X32370000Y-63540000D02*
X37070000Y-63540000D01*
X29830000Y-63540000D02*
X31360000Y-63540000D01*
X29580000Y-68160000D02*
X27040000Y-68160000D01*
X27040000Y-68160000D02*
X27040000Y-64100000D01*
X27040000Y-64100000D02*
X29580000Y-64100000D01*
X29580000Y-64100000D02*
X29580000Y-68160000D01*
X28560000Y-67760000D02*
X27930000Y-64710000D01*
X28690000Y-67630000D02*
X28060000Y-64580000D01*
X32760000Y-64100000D02*
X32760000Y-64480000D01*
X32760000Y-68160000D02*
X32760000Y-67780000D01*
X32760000Y-67780000D02*
X32760000Y-64480000D01*
X26790000Y-78780000D02*
X26790000Y-63540000D01*
X29830000Y-68620000D02*
X29830000Y-63600000D01*
X39230000Y-64110000D02*
X39230000Y-68620000D01*
X37010000Y-68180000D02*
X32760000Y-68180000D01*
X32370000Y-63540000D02*
X32370000Y-78720000D01*
X111738699Y-54317028D02*
G75*
G03X110810000Y-54460000I-408699J-432972D01*
G01*
X111751534Y-57419976D02*
G75*
G03X111680000Y-54260000I-1361534J1549976D01*
G01*
X110838582Y-54420171D02*
G75*
G03X110800000Y-57410000I1911418J-1519829D01*
G01*
X110766004Y-57365620D02*
G75*
G03X111730000Y-57410000I503996J455620D01*
G01*
X111738699Y-59317028D02*
G75*
G03X110810000Y-59460000I-408699J-432972D01*
G01*
X111741687Y-62418239D02*
G75*
G03X111680000Y-59270000I-1351687J1548239D01*
G01*
X110848263Y-59427667D02*
G75*
G03X110800000Y-62410000I1901737J-1522333D01*
G01*
X110756005Y-62365532D02*
G75*
G03X111730000Y-62420000I513995J455532D01*
G01*
X106930000Y-59240000D02*
X106930000Y-62550000D01*
X106930000Y-58860000D02*
X106930000Y-59240000D01*
X106930000Y-62930000D02*
X106930000Y-62550000D01*
X107320000Y-62550000D02*
X107320000Y-59240000D01*
X107320000Y-63490000D02*
X107320000Y-62550000D01*
X107320000Y-57540000D02*
X107320000Y-59240000D01*
X107320000Y-54240000D02*
X107320000Y-57540000D01*
X107320000Y-53300000D02*
X107320000Y-54240000D01*
X106930000Y-57540000D02*
X106930000Y-54240000D01*
X106930000Y-57920000D02*
X106930000Y-57540000D01*
X106930000Y-53860000D02*
X106930000Y-54240000D01*
X111000000Y-54390000D02*
X111630000Y-57440000D01*
X111130000Y-54260000D02*
X111760000Y-57320000D01*
X111000000Y-59400000D02*
X111630000Y-62440000D01*
X111130000Y-59270000D02*
X111760000Y-62320000D01*
X112650000Y-57920000D02*
X112650000Y-53860000D01*
X110110000Y-53860000D02*
X112650000Y-53860000D01*
X110110000Y-57920000D02*
X110110000Y-53860000D01*
X110110000Y-57920000D02*
X112650000Y-57920000D01*
X110110000Y-62930000D02*
X110110000Y-58860000D01*
X112650000Y-62930000D02*
X110110000Y-62930000D01*
X112650000Y-58860000D02*
X112650000Y-62930000D01*
X110110000Y-58860000D02*
X112650000Y-58860000D01*
X109850000Y-63490000D02*
X108330000Y-63490000D01*
X109850000Y-53300000D02*
X112900000Y-53300000D01*
X109850000Y-53300000D02*
X109850000Y-63490000D01*
X107320000Y-63490000D02*
X102620000Y-63490000D01*
X108330000Y-63490000D02*
X107320000Y-63490000D01*
X107320000Y-53300000D02*
X109850000Y-53300000D01*
X100460000Y-53300000D02*
X107320000Y-53300000D01*
X106170000Y-62550000D02*
X106170000Y-62160000D01*
X106170000Y-59240000D02*
X106170000Y-59620000D01*
X106170000Y-57540000D02*
X106170000Y-57160000D01*
X106170000Y-54240000D02*
X106170000Y-54620000D01*
X103000000Y-54240000D02*
X106170000Y-54240000D01*
X103000000Y-57540000D02*
X103000000Y-54240000D01*
X103000000Y-57540000D02*
X106170000Y-57540000D01*
X103000000Y-59240000D02*
X106170000Y-59240000D01*
X103000000Y-62550000D02*
X103000000Y-59240000D01*
X103000000Y-62550000D02*
X106170000Y-62550000D01*
X102360000Y-53860000D02*
X100460000Y-53860000D01*
X102360000Y-57920000D02*
X106930000Y-57920000D01*
X102360000Y-57920000D02*
X102360000Y-53860000D01*
X102360000Y-62930000D02*
X100460000Y-62930000D01*
X102360000Y-58860000D02*
X106930000Y-58860000D01*
X102360000Y-58860000D02*
X102360000Y-62930000D01*
X100460000Y-53860000D02*
X100460000Y-57920000D01*
X100460000Y-53300000D02*
X100460000Y-53860000D01*
X106930000Y-53860000D02*
X102360000Y-53860000D01*
X100460000Y-57920000D02*
X100460000Y-58860000D01*
X100460000Y-57920000D02*
X102360000Y-57920000D01*
X100460000Y-62930000D02*
X100460000Y-63490000D01*
X100460000Y-58860000D02*
X100460000Y-62930000D01*
X106930000Y-62930000D02*
X102360000Y-62930000D01*
X100460000Y-58860000D02*
X102360000Y-58860000D01*
X102870000Y-63990000D02*
X101220000Y-63990000D01*
X102620000Y-63490000D02*
X101470000Y-63490000D01*
X102870000Y-63990000D02*
X102620000Y-63490000D01*
X101470000Y-63490000D02*
X100460000Y-63490000D01*
X101220000Y-63990000D02*
X101470000Y-63490000D01*
X108080000Y-63990000D02*
X108330000Y-63490000D01*
X112900000Y-63990000D02*
X108080000Y-63990000D01*
X112900000Y-63490000D02*
X112900000Y-63990000D01*
X112900000Y-63490000D02*
X112900000Y-53300000D01*
X112900000Y-63490000D02*
X109850000Y-63490000D01*
X104140000Y-59620000D02*
X106930000Y-59620000D01*
X106930000Y-59620000D02*
X106930000Y-62160000D01*
X104140000Y-62160000D02*
X106930000Y-62160000D01*
X104140000Y-59620000D02*
X104140000Y-62160000D01*
X104140000Y-54620000D02*
X106930000Y-54620000D01*
X106930000Y-54620000D02*
X106930000Y-57160000D01*
X104140000Y-57160000D02*
X106930000Y-57160000D01*
X104140000Y-54620000D02*
X104140000Y-57160000D01*
X104140000Y-77480000D02*
X104140000Y-80020000D01*
X104140000Y-80020000D02*
X106930000Y-80020000D01*
X106930000Y-77480000D02*
X106930000Y-80020000D01*
X104140000Y-77480000D02*
X106930000Y-77480000D01*
X104140000Y-82480000D02*
X104140000Y-85020000D01*
X104140000Y-85020000D02*
X106930000Y-85020000D01*
X106930000Y-82480000D02*
X106930000Y-85020000D01*
X104140000Y-82480000D02*
X106930000Y-82480000D01*
X112900000Y-86350000D02*
X109850000Y-86350000D01*
X112900000Y-86350000D02*
X112900000Y-76160000D01*
X112900000Y-86350000D02*
X112900000Y-86850000D01*
X112900000Y-86850000D02*
X108080000Y-86850000D01*
X108080000Y-86850000D02*
X108330000Y-86350000D01*
X101220000Y-86850000D02*
X101470000Y-86350000D01*
X101470000Y-86350000D02*
X100460000Y-86350000D01*
X102870000Y-86850000D02*
X102620000Y-86350000D01*
X102620000Y-86350000D02*
X101470000Y-86350000D01*
X102870000Y-86850000D02*
X101220000Y-86850000D01*
X100460000Y-81720000D02*
X102360000Y-81720000D01*
X106930000Y-85790000D02*
X102360000Y-85790000D01*
X100460000Y-81720000D02*
X100460000Y-85790000D01*
X100460000Y-85790000D02*
X100460000Y-86350000D01*
X100460000Y-80780000D02*
X102360000Y-80780000D01*
X100460000Y-80780000D02*
X100460000Y-81720000D01*
X106930000Y-76720000D02*
X102360000Y-76720000D01*
X100460000Y-76160000D02*
X100460000Y-76720000D01*
X100460000Y-76720000D02*
X100460000Y-80780000D01*
X102360000Y-81720000D02*
X102360000Y-85790000D01*
X102360000Y-81720000D02*
X106930000Y-81720000D01*
X102360000Y-85790000D02*
X100460000Y-85790000D01*
X102360000Y-80780000D02*
X102360000Y-76720000D01*
X102360000Y-80780000D02*
X106930000Y-80780000D01*
X102360000Y-76720000D02*
X100460000Y-76720000D01*
X103000000Y-85410000D02*
X106170000Y-85410000D01*
X103000000Y-85410000D02*
X103000000Y-82100000D01*
X103000000Y-82100000D02*
X106170000Y-82100000D01*
X103000000Y-80400000D02*
X106170000Y-80400000D01*
X103000000Y-80400000D02*
X103000000Y-77100000D01*
X103000000Y-77100000D02*
X106170000Y-77100000D01*
X106170000Y-77100000D02*
X106170000Y-77480000D01*
X106170000Y-80400000D02*
X106170000Y-80020000D01*
X106170000Y-82100000D02*
X106170000Y-82480000D01*
X106170000Y-85410000D02*
X106170000Y-85020000D01*
X100460000Y-76160000D02*
X107320000Y-76160000D01*
X107320000Y-76160000D02*
X109850000Y-76160000D01*
X108330000Y-86350000D02*
X107320000Y-86350000D01*
X107320000Y-86350000D02*
X102620000Y-86350000D01*
X109850000Y-76160000D02*
X109850000Y-86350000D01*
X109850000Y-76160000D02*
X112900000Y-76160000D01*
X109850000Y-86350000D02*
X108330000Y-86350000D01*
X110110000Y-81720000D02*
X112650000Y-81720000D01*
X112650000Y-81720000D02*
X112650000Y-85790000D01*
X112650000Y-85790000D02*
X110110000Y-85790000D01*
X110110000Y-85790000D02*
X110110000Y-81720000D01*
X110110000Y-80780000D02*
X112650000Y-80780000D01*
X110110000Y-80780000D02*
X110110000Y-76720000D01*
X110110000Y-76720000D02*
X112650000Y-76720000D01*
X112650000Y-80780000D02*
X112650000Y-76720000D01*
X111130000Y-82130000D02*
X111760000Y-85180000D01*
X111000000Y-82260000D02*
X111630000Y-85300000D01*
X111130000Y-77120000D02*
X111760000Y-80180000D01*
X111000000Y-77250000D02*
X111630000Y-80300000D01*
X106930000Y-76720000D02*
X106930000Y-77100000D01*
X106930000Y-80780000D02*
X106930000Y-80400000D01*
X106930000Y-80400000D02*
X106930000Y-77100000D01*
X107320000Y-76160000D02*
X107320000Y-77100000D01*
X107320000Y-77100000D02*
X107320000Y-80400000D01*
X107320000Y-80400000D02*
X107320000Y-82100000D01*
X107320000Y-86350000D02*
X107320000Y-85410000D01*
X107320000Y-85410000D02*
X107320000Y-82100000D01*
X106930000Y-85790000D02*
X106930000Y-85410000D01*
X106930000Y-81720000D02*
X106930000Y-82100000D01*
X106930000Y-82100000D02*
X106930000Y-85410000D01*
X110756005Y-85225532D02*
G75*
G03X111730000Y-85280000I513995J455532D01*
G01*
X110848263Y-82287667D02*
G75*
G03X110800000Y-85270000I1901737J-1522333D01*
G01*
X111741687Y-85278239D02*
G75*
G03X111680000Y-82130000I-1351687J1548239D01*
G01*
X111738699Y-82177028D02*
G75*
G03X110810000Y-82320000I-408699J-432972D01*
G01*
X110766004Y-80225620D02*
G75*
G03X111730000Y-80270000I503996J455620D01*
G01*
X110838582Y-77280171D02*
G75*
G03X110800000Y-80270000I1911418J-1519829D01*
G01*
X111751534Y-80279976D02*
G75*
G03X111680000Y-77120000I-1361534J1549976D01*
G01*
X111738699Y-77177028D02*
G75*
G03X110810000Y-77320000I-408699J-432972D01*
G01*
X27940000Y-87630000D02*
X30610000Y-87630000D01*
X43180000Y-87630000D02*
X40510000Y-87630000D01*
X30610000Y-89430000D02*
X40510000Y-89430000D01*
X30610000Y-85830000D02*
X30610000Y-89430000D01*
X40510000Y-85830000D02*
X30610000Y-85830000D01*
X40510000Y-89430000D02*
X40510000Y-85830000D01*
X27940000Y-59690000D02*
X30610000Y-59690000D01*
X43180000Y-59690000D02*
X40510000Y-59690000D01*
X30610000Y-61490000D02*
X40510000Y-61490000D01*
X30610000Y-57890000D02*
X30610000Y-61490000D01*
X40510000Y-57890000D02*
X30610000Y-57890000D01*
X40510000Y-61490000D02*
X40510000Y-57890000D01*
X40510000Y-84350000D02*
X40510000Y-80750000D01*
X40510000Y-80750000D02*
X30610000Y-80750000D01*
X30610000Y-80750000D02*
X30610000Y-84350000D01*
X30610000Y-84350000D02*
X40510000Y-84350000D01*
X43180000Y-82550000D02*
X40510000Y-82550000D01*
X27940000Y-82550000D02*
X30610000Y-82550000D01*
X40510000Y-51330000D02*
X40510000Y-47730000D01*
X40510000Y-47730000D02*
X30610000Y-47730000D01*
X30610000Y-47730000D02*
X30610000Y-51330000D01*
X30610000Y-51330000D02*
X40510000Y-51330000D01*
X43180000Y-49530000D02*
X40510000Y-49530000D01*
X27940000Y-49530000D02*
X30610000Y-49530000D01*
X27940000Y-92710000D02*
X30610000Y-92710000D01*
X43180000Y-92710000D02*
X40510000Y-92710000D01*
X30610000Y-94510000D02*
X40510000Y-94510000D01*
X30610000Y-90910000D02*
X30610000Y-94510000D01*
X40510000Y-90910000D02*
X30610000Y-90910000D01*
X40510000Y-94510000D02*
X40510000Y-90910000D01*
X62230000Y-49530000D02*
X64900000Y-49530000D01*
X77470000Y-49530000D02*
X74800000Y-49530000D01*
X64900000Y-51330000D02*
X74800000Y-51330000D01*
X64900000Y-47730000D02*
X64900000Y-51330000D01*
X74800000Y-47730000D02*
X64900000Y-47730000D01*
X74800000Y-51330000D02*
X74800000Y-47730000D01*
X64900000Y-52810000D02*
X64900000Y-56410000D01*
X64900000Y-56410000D02*
X74800000Y-56410000D01*
X74800000Y-56410000D02*
X74800000Y-52810000D01*
X74800000Y-52810000D02*
X64900000Y-52810000D01*
X62230000Y-54610000D02*
X64900000Y-54610000D01*
X77470000Y-54610000D02*
X74800000Y-54610000D01*
X64900000Y-85830000D02*
X64900000Y-89430000D01*
X64900000Y-89430000D02*
X74800000Y-89430000D01*
X74800000Y-89430000D02*
X74800000Y-85830000D01*
X74800000Y-85830000D02*
X64900000Y-85830000D01*
X62230000Y-87630000D02*
X64900000Y-87630000D01*
X77470000Y-87630000D02*
X74800000Y-87630000D01*
X62230000Y-92710000D02*
X64900000Y-92710000D01*
X77470000Y-92710000D02*
X74800000Y-92710000D01*
X64900000Y-94510000D02*
X74800000Y-94510000D01*
X64900000Y-90910000D02*
X64900000Y-94510000D01*
X74800000Y-90910000D02*
X64900000Y-90910000D01*
X74800000Y-94510000D02*
X74800000Y-90910000D01*
X102870000Y-49530000D02*
X98660000Y-49530000D01*
X82550000Y-49530000D02*
X86760000Y-49530000D01*
X98660000Y-47280000D02*
X86760000Y-47280000D01*
X98660000Y-51780000D02*
X98660000Y-47280000D01*
X86760000Y-51780000D02*
X98660000Y-51780000D01*
X86760000Y-47280000D02*
X86760000Y-51780000D01*
X86760000Y-90460000D02*
X86760000Y-94960000D01*
X86760000Y-94960000D02*
X98660000Y-94960000D01*
X98660000Y-94960000D02*
X98660000Y-90460000D01*
X98660000Y-90460000D02*
X86760000Y-90460000D01*
X82550000Y-92710000D02*
X86760000Y-92710000D01*
X102870000Y-92710000D02*
X98660000Y-92710000D01*
D10*
X21191666Y-91892380D02*
X21191666Y-90892380D01*
X21525000Y-91606666D01*
X21858333Y-90892380D01*
X21858333Y-91892380D01*
X22334523Y-91892380D02*
X22334523Y-90892380D01*
X22334523Y-91368571D02*
X22905952Y-91368571D01*
X22905952Y-91892380D02*
X22905952Y-90892380D01*
X23905952Y-91892380D02*
X23334523Y-91892380D01*
X23620238Y-91892380D02*
X23620238Y-90892380D01*
X23525000Y-91035238D01*
X23429761Y-91130476D01*
X23334523Y-91178095D01*
X21191666Y-49982380D02*
X21191666Y-48982380D01*
X21525000Y-49696666D01*
X21858333Y-48982380D01*
X21858333Y-49982380D01*
X22334523Y-49982380D02*
X22334523Y-48982380D01*
X22334523Y-49458571D02*
X22905952Y-49458571D01*
X22905952Y-49982380D02*
X22905952Y-48982380D01*
X23810714Y-49315714D02*
X23810714Y-49982380D01*
X23572619Y-48934761D02*
X23334523Y-49649047D01*
X23953571Y-49649047D01*
X108186666Y-49982380D02*
X108186666Y-48982380D01*
X108520000Y-49696666D01*
X108853333Y-48982380D01*
X108853333Y-49982380D01*
X109329523Y-49982380D02*
X109329523Y-48982380D01*
X109329523Y-49458571D02*
X109900952Y-49458571D01*
X109900952Y-49982380D02*
X109900952Y-48982380D01*
X110329523Y-49077619D02*
X110377142Y-49030000D01*
X110472380Y-48982380D01*
X110710476Y-48982380D01*
X110805714Y-49030000D01*
X110853333Y-49077619D01*
X110900952Y-49172857D01*
X110900952Y-49268095D01*
X110853333Y-49410952D01*
X110281904Y-49982380D01*
X110900952Y-49982380D01*
X108186666Y-91892380D02*
X108186666Y-90892380D01*
X108520000Y-91606666D01*
X108853333Y-90892380D01*
X108853333Y-91892380D01*
X109329523Y-91892380D02*
X109329523Y-90892380D01*
X109329523Y-91368571D02*
X109900952Y-91368571D01*
X109900952Y-91892380D02*
X109900952Y-90892380D01*
X110281904Y-90892380D02*
X110900952Y-90892380D01*
X110567619Y-91273333D01*
X110710476Y-91273333D01*
X110805714Y-91320952D01*
X110853333Y-91368571D01*
X110900952Y-91463809D01*
X110900952Y-91701904D01*
X110853333Y-91797142D01*
X110805714Y-91844761D01*
X110710476Y-91892380D01*
X110424761Y-91892380D01*
X110329523Y-91844761D01*
X110281904Y-91797142D01*
X43517142Y-63031666D02*
X43564761Y-63079285D01*
X43612380Y-63222142D01*
X43612380Y-63317380D01*
X43564761Y-63460238D01*
X43469523Y-63555476D01*
X43374285Y-63603095D01*
X43183809Y-63650714D01*
X43040952Y-63650714D01*
X42850476Y-63603095D01*
X42755238Y-63555476D01*
X42660000Y-63460238D01*
X42612380Y-63317380D01*
X42612380Y-63222142D01*
X42660000Y-63079285D01*
X42707619Y-63031666D01*
X43612380Y-62079285D02*
X43612380Y-62650714D01*
X43612380Y-62365000D02*
X42612380Y-62365000D01*
X42755238Y-62460238D01*
X42850476Y-62555476D01*
X42898095Y-62650714D01*
X43517142Y-79541666D02*
X43564761Y-79589285D01*
X43612380Y-79732142D01*
X43612380Y-79827380D01*
X43564761Y-79970238D01*
X43469523Y-80065476D01*
X43374285Y-80113095D01*
X43183809Y-80160714D01*
X43040952Y-80160714D01*
X42850476Y-80113095D01*
X42755238Y-80065476D01*
X42660000Y-79970238D01*
X42612380Y-79827380D01*
X42612380Y-79732142D01*
X42660000Y-79589285D01*
X42707619Y-79541666D01*
X42707619Y-79160714D02*
X42660000Y-79113095D01*
X42612380Y-79017857D01*
X42612380Y-78779761D01*
X42660000Y-78684523D01*
X42707619Y-78636904D01*
X42802857Y-78589285D01*
X42898095Y-78589285D01*
X43040952Y-78636904D01*
X43612380Y-79208333D01*
X43612380Y-78589285D01*
X49887142Y-67456666D02*
X49934761Y-67504285D01*
X49982380Y-67647142D01*
X49982380Y-67742380D01*
X49934761Y-67885238D01*
X49839523Y-67980476D01*
X49744285Y-68028095D01*
X49553809Y-68075714D01*
X49410952Y-68075714D01*
X49220476Y-68028095D01*
X49125238Y-67980476D01*
X49030000Y-67885238D01*
X48982380Y-67742380D01*
X48982380Y-67647142D01*
X49030000Y-67504285D01*
X49077619Y-67456666D01*
X48982380Y-67123333D02*
X48982380Y-66504285D01*
X49363333Y-66837619D01*
X49363333Y-66694761D01*
X49410952Y-66599523D01*
X49458571Y-66551904D01*
X49553809Y-66504285D01*
X49791904Y-66504285D01*
X49887142Y-66551904D01*
X49934761Y-66599523D01*
X49982380Y-66694761D01*
X49982380Y-66980476D01*
X49934761Y-67075714D01*
X49887142Y-67123333D01*
X49887142Y-75116666D02*
X49934761Y-75164285D01*
X49982380Y-75307142D01*
X49982380Y-75402380D01*
X49934761Y-75545238D01*
X49839523Y-75640476D01*
X49744285Y-75688095D01*
X49553809Y-75735714D01*
X49410952Y-75735714D01*
X49220476Y-75688095D01*
X49125238Y-75640476D01*
X49030000Y-75545238D01*
X48982380Y-75402380D01*
X48982380Y-75307142D01*
X49030000Y-75164285D01*
X49077619Y-75116666D01*
X49315714Y-74259523D02*
X49982380Y-74259523D01*
X48934761Y-74497619D02*
X49649047Y-74735714D01*
X49649047Y-74116666D01*
X57507142Y-67456666D02*
X57554761Y-67504285D01*
X57602380Y-67647142D01*
X57602380Y-67742380D01*
X57554761Y-67885238D01*
X57459523Y-67980476D01*
X57364285Y-68028095D01*
X57173809Y-68075714D01*
X57030952Y-68075714D01*
X56840476Y-68028095D01*
X56745238Y-67980476D01*
X56650000Y-67885238D01*
X56602380Y-67742380D01*
X56602380Y-67647142D01*
X56650000Y-67504285D01*
X56697619Y-67456666D01*
X56602380Y-66551904D02*
X56602380Y-67028095D01*
X57078571Y-67075714D01*
X57030952Y-67028095D01*
X56983333Y-66932857D01*
X56983333Y-66694761D01*
X57030952Y-66599523D01*
X57078571Y-66551904D01*
X57173809Y-66504285D01*
X57411904Y-66504285D01*
X57507142Y-66551904D01*
X57554761Y-66599523D01*
X57602380Y-66694761D01*
X57602380Y-66932857D01*
X57554761Y-67028095D01*
X57507142Y-67075714D01*
X51718095Y-92162380D02*
X51718095Y-92971904D01*
X51765714Y-93067142D01*
X51813333Y-93114761D01*
X51908571Y-93162380D01*
X52099047Y-93162380D01*
X52194285Y-93114761D01*
X52241904Y-93067142D01*
X52289523Y-92971904D01*
X52289523Y-92162380D01*
X52718095Y-92257619D02*
X52765714Y-92210000D01*
X52860952Y-92162380D01*
X53099047Y-92162380D01*
X53194285Y-92210000D01*
X53241904Y-92257619D01*
X53289523Y-92352857D01*
X53289523Y-92448095D01*
X53241904Y-92590952D01*
X52670476Y-93162380D01*
X53289523Y-93162380D01*
X51533095Y-48347380D02*
X51533095Y-49156904D01*
X51580714Y-49252142D01*
X51628333Y-49299761D01*
X51723571Y-49347380D01*
X51914047Y-49347380D01*
X52009285Y-49299761D01*
X52056904Y-49252142D01*
X52104523Y-49156904D01*
X52104523Y-48347380D01*
X53104523Y-49347380D02*
X52533095Y-49347380D01*
X52818809Y-49347380D02*
X52818809Y-48347380D01*
X52723571Y-48490238D01*
X52628333Y-48585476D01*
X52533095Y-48633095D01*
X35393333Y-55062380D02*
X35060000Y-54586190D01*
X34821904Y-55062380D02*
X34821904Y-54062380D01*
X35202857Y-54062380D01*
X35298095Y-54110000D01*
X35345714Y-54157619D01*
X35393333Y-54252857D01*
X35393333Y-54395714D01*
X35345714Y-54490952D01*
X35298095Y-54538571D01*
X35202857Y-54586190D01*
X34821904Y-54586190D01*
X36345714Y-55062380D02*
X35774285Y-55062380D01*
X36060000Y-55062380D02*
X36060000Y-54062380D01*
X35964761Y-54205238D01*
X35869523Y-54300476D01*
X35774285Y-54348095D01*
X109037380Y-71826190D02*
X108037380Y-71826190D01*
X108037380Y-71445238D01*
X108085000Y-71350000D01*
X108132619Y-71302380D01*
X108227857Y-71254761D01*
X108370714Y-71254761D01*
X108465952Y-71302380D01*
X108513571Y-71350000D01*
X108561190Y-71445238D01*
X108561190Y-71826190D01*
X109037380Y-70683333D02*
X108989761Y-70778571D01*
X108942142Y-70826190D01*
X108846904Y-70873809D01*
X108561190Y-70873809D01*
X108465952Y-70826190D01*
X108418333Y-70778571D01*
X108370714Y-70683333D01*
X108370714Y-70540476D01*
X108418333Y-70445238D01*
X108465952Y-70397619D01*
X108561190Y-70350000D01*
X108846904Y-70350000D01*
X108942142Y-70397619D01*
X108989761Y-70445238D01*
X109037380Y-70540476D01*
X109037380Y-70683333D01*
X108370714Y-70016666D02*
X109037380Y-69826190D01*
X108561190Y-69635714D01*
X109037380Y-69445238D01*
X108370714Y-69254761D01*
X108989761Y-68492857D02*
X109037380Y-68588095D01*
X109037380Y-68778571D01*
X108989761Y-68873809D01*
X108894523Y-68921428D01*
X108513571Y-68921428D01*
X108418333Y-68873809D01*
X108370714Y-68778571D01*
X108370714Y-68588095D01*
X108418333Y-68492857D01*
X108513571Y-68445238D01*
X108608809Y-68445238D01*
X108704047Y-68921428D01*
X109037380Y-68016666D02*
X108370714Y-68016666D01*
X108561190Y-68016666D02*
X108465952Y-67969047D01*
X108418333Y-67921428D01*
X108370714Y-67826190D01*
X108370714Y-67730952D01*
X57507142Y-75116666D02*
X57554761Y-75164285D01*
X57602380Y-75307142D01*
X57602380Y-75402380D01*
X57554761Y-75545238D01*
X57459523Y-75640476D01*
X57364285Y-75688095D01*
X57173809Y-75735714D01*
X57030952Y-75735714D01*
X56840476Y-75688095D01*
X56745238Y-75640476D01*
X56650000Y-75545238D01*
X56602380Y-75402380D01*
X56602380Y-75307142D01*
X56650000Y-75164285D01*
X56697619Y-75116666D01*
X56602380Y-74259523D02*
X56602380Y-74450000D01*
X56650000Y-74545238D01*
X56697619Y-74592857D01*
X56840476Y-74688095D01*
X57030952Y-74735714D01*
X57411904Y-74735714D01*
X57507142Y-74688095D01*
X57554761Y-74640476D01*
X57602380Y-74545238D01*
X57602380Y-74354761D01*
X57554761Y-74259523D01*
X57507142Y-74211904D01*
X57411904Y-74164285D01*
X57173809Y-74164285D01*
X57078571Y-74211904D01*
X57030952Y-74259523D01*
X56983333Y-74354761D01*
X56983333Y-74545238D01*
X57030952Y-74640476D01*
X57078571Y-74688095D01*
X57173809Y-74735714D01*
D12*
X77791428Y-59820000D02*
X77834285Y-59862857D01*
X77877142Y-59991428D01*
X77877142Y-60077142D01*
X77834285Y-60205714D01*
X77748571Y-60291428D01*
X77662857Y-60334285D01*
X77491428Y-60377142D01*
X77362857Y-60377142D01*
X77191428Y-60334285D01*
X77105714Y-60291428D01*
X77020000Y-60205714D01*
X76977142Y-60077142D01*
X76977142Y-59991428D01*
X77020000Y-59862857D01*
X77062857Y-59820000D01*
X76977142Y-59520000D02*
X76977142Y-58920000D01*
X77877142Y-59305714D01*
X77791428Y-82720000D02*
X77834285Y-82762857D01*
X77877142Y-82891428D01*
X77877142Y-82977142D01*
X77834285Y-83105714D01*
X77748571Y-83191428D01*
X77662857Y-83234285D01*
X77491428Y-83277142D01*
X77362857Y-83277142D01*
X77191428Y-83234285D01*
X77105714Y-83191428D01*
X77020000Y-83105714D01*
X76977142Y-82977142D01*
X76977142Y-82891428D01*
X77020000Y-82762857D01*
X77062857Y-82720000D01*
X77362857Y-82205714D02*
X77320000Y-82291428D01*
X77277142Y-82334285D01*
X77191428Y-82377142D01*
X77148571Y-82377142D01*
X77062857Y-82334285D01*
X77020000Y-82291428D01*
X76977142Y-82205714D01*
X76977142Y-82034285D01*
X77020000Y-81948571D01*
X77062857Y-81905714D01*
X77148571Y-81862857D01*
X77191428Y-81862857D01*
X77277142Y-81905714D01*
X77320000Y-81948571D01*
X77362857Y-82034285D01*
X77362857Y-82205714D01*
X77405714Y-82291428D01*
X77448571Y-82334285D01*
X77534285Y-82377142D01*
X77705714Y-82377142D01*
X77791428Y-82334285D01*
X77834285Y-82291428D01*
X77877142Y-82205714D01*
X77877142Y-82034285D01*
X77834285Y-81948571D01*
X77791428Y-81905714D01*
X77705714Y-81862857D01*
X77534285Y-81862857D01*
X77448571Y-81905714D01*
X77405714Y-81948571D01*
X77362857Y-82034285D01*
D10*
X96877142Y-59796666D02*
X96924761Y-59844285D01*
X96972380Y-59987142D01*
X96972380Y-60082380D01*
X96924761Y-60225238D01*
X96829523Y-60320476D01*
X96734285Y-60368095D01*
X96543809Y-60415714D01*
X96400952Y-60415714D01*
X96210476Y-60368095D01*
X96115238Y-60320476D01*
X96020000Y-60225238D01*
X95972380Y-60082380D01*
X95972380Y-59987142D01*
X96020000Y-59844285D01*
X96067619Y-59796666D01*
X96972380Y-59320476D02*
X96972380Y-59130000D01*
X96924761Y-59034761D01*
X96877142Y-58987142D01*
X96734285Y-58891904D01*
X96543809Y-58844285D01*
X96162857Y-58844285D01*
X96067619Y-58891904D01*
X96020000Y-58939523D01*
X95972380Y-59034761D01*
X95972380Y-59225238D01*
X96020000Y-59320476D01*
X96067619Y-59368095D01*
X96162857Y-59415714D01*
X96400952Y-59415714D01*
X96496190Y-59368095D01*
X96543809Y-59320476D01*
X96591428Y-59225238D01*
X96591428Y-59034761D01*
X96543809Y-58939523D01*
X96496190Y-58891904D01*
X96400952Y-58844285D01*
X96877142Y-83252857D02*
X96924761Y-83300476D01*
X96972380Y-83443333D01*
X96972380Y-83538571D01*
X96924761Y-83681428D01*
X96829523Y-83776666D01*
X96734285Y-83824285D01*
X96543809Y-83871904D01*
X96400952Y-83871904D01*
X96210476Y-83824285D01*
X96115238Y-83776666D01*
X96020000Y-83681428D01*
X95972380Y-83538571D01*
X95972380Y-83443333D01*
X96020000Y-83300476D01*
X96067619Y-83252857D01*
X96972380Y-82300476D02*
X96972380Y-82871904D01*
X96972380Y-82586190D02*
X95972380Y-82586190D01*
X96115238Y-82681428D01*
X96210476Y-82776666D01*
X96258095Y-82871904D01*
X95972380Y-81681428D02*
X95972380Y-81586190D01*
X96020000Y-81490952D01*
X96067619Y-81443333D01*
X96162857Y-81395714D01*
X96353333Y-81348095D01*
X96591428Y-81348095D01*
X96781904Y-81395714D01*
X96877142Y-81443333D01*
X96924761Y-81490952D01*
X96972380Y-81586190D01*
X96972380Y-81681428D01*
X96924761Y-81776666D01*
X96877142Y-81824285D01*
X96781904Y-81871904D01*
X96591428Y-81919523D01*
X96353333Y-81919523D01*
X96162857Y-81871904D01*
X96067619Y-81824285D01*
X96020000Y-81776666D01*
X95972380Y-81681428D01*
X86947142Y-60047142D02*
X86899523Y-60094761D01*
X86756666Y-60142380D01*
X86661428Y-60142380D01*
X86518571Y-60094761D01*
X86423333Y-59999523D01*
X86375714Y-59904285D01*
X86328095Y-59713809D01*
X86328095Y-59570952D01*
X86375714Y-59380476D01*
X86423333Y-59285238D01*
X86518571Y-59190000D01*
X86661428Y-59142380D01*
X86756666Y-59142380D01*
X86899523Y-59190000D01*
X86947142Y-59237619D01*
X87899523Y-60142380D02*
X87328095Y-60142380D01*
X87613809Y-60142380D02*
X87613809Y-59142380D01*
X87518571Y-59285238D01*
X87423333Y-59380476D01*
X87328095Y-59428095D01*
X88851904Y-60142380D02*
X88280476Y-60142380D01*
X88566190Y-60142380D02*
X88566190Y-59142380D01*
X88470952Y-59285238D01*
X88375714Y-59380476D01*
X88280476Y-59428095D01*
X86947142Y-82907142D02*
X86899523Y-82954761D01*
X86756666Y-83002380D01*
X86661428Y-83002380D01*
X86518571Y-82954761D01*
X86423333Y-82859523D01*
X86375714Y-82764285D01*
X86328095Y-82573809D01*
X86328095Y-82430952D01*
X86375714Y-82240476D01*
X86423333Y-82145238D01*
X86518571Y-82050000D01*
X86661428Y-82002380D01*
X86756666Y-82002380D01*
X86899523Y-82050000D01*
X86947142Y-82097619D01*
X87899523Y-83002380D02*
X87328095Y-83002380D01*
X87613809Y-83002380D02*
X87613809Y-82002380D01*
X87518571Y-82145238D01*
X87423333Y-82240476D01*
X87328095Y-82288095D01*
X88280476Y-82097619D02*
X88328095Y-82050000D01*
X88423333Y-82002380D01*
X88661428Y-82002380D01*
X88756666Y-82050000D01*
X88804285Y-82097619D01*
X88851904Y-82192857D01*
X88851904Y-82288095D01*
X88804285Y-82430952D01*
X88232857Y-83002380D01*
X88851904Y-83002380D01*
X72128095Y-66052380D02*
X72128095Y-65052380D01*
X72699523Y-66052380D02*
X72270952Y-65480952D01*
X72699523Y-65052380D02*
X72128095Y-65623809D01*
X66181904Y-63952380D02*
X66181904Y-62952380D01*
X66420000Y-62952380D01*
X66562857Y-63000000D01*
X66658095Y-63095238D01*
X66705714Y-63190476D01*
X66753333Y-63380952D01*
X66753333Y-63523809D01*
X66705714Y-63714285D01*
X66658095Y-63809523D01*
X66562857Y-63904761D01*
X66420000Y-63952380D01*
X66181904Y-63952380D01*
X67705714Y-63952380D02*
X67134285Y-63952380D01*
X67420000Y-63952380D02*
X67420000Y-62952380D01*
X67324761Y-63095238D01*
X67229523Y-63190476D01*
X67134285Y-63238095D01*
X66571904Y-60142380D02*
X66571904Y-59142380D01*
X66810000Y-59142380D01*
X66952857Y-59190000D01*
X67048095Y-59285238D01*
X67095714Y-59380476D01*
X67143333Y-59570952D01*
X67143333Y-59713809D01*
X67095714Y-59904285D01*
X67048095Y-59999523D01*
X66952857Y-60094761D01*
X66810000Y-60142380D01*
X66571904Y-60142380D01*
X67524285Y-59237619D02*
X67571904Y-59190000D01*
X67667142Y-59142380D01*
X67905238Y-59142380D01*
X68000476Y-59190000D01*
X68048095Y-59237619D01*
X68095714Y-59332857D01*
X68095714Y-59428095D01*
X68048095Y-59570952D01*
X67476666Y-60142380D01*
X68095714Y-60142380D01*
X72128095Y-62242380D02*
X72128095Y-61242380D01*
X72699523Y-62242380D02*
X72270952Y-61670952D01*
X72699523Y-61242380D02*
X72128095Y-61813809D01*
X72128095Y-85102380D02*
X72128095Y-84102380D01*
X72699523Y-85102380D02*
X72270952Y-84530952D01*
X72699523Y-84102380D02*
X72128095Y-84673809D01*
X65936904Y-83002380D02*
X65936904Y-82002380D01*
X66175000Y-82002380D01*
X66317857Y-82050000D01*
X66413095Y-82145238D01*
X66460714Y-82240476D01*
X66508333Y-82430952D01*
X66508333Y-82573809D01*
X66460714Y-82764285D01*
X66413095Y-82859523D01*
X66317857Y-82954761D01*
X66175000Y-83002380D01*
X65936904Y-83002380D01*
X66841666Y-82002380D02*
X67460714Y-82002380D01*
X67127380Y-82383333D01*
X67270238Y-82383333D01*
X67365476Y-82430952D01*
X67413095Y-82478571D01*
X67460714Y-82573809D01*
X67460714Y-82811904D01*
X67413095Y-82907142D01*
X67365476Y-82954761D01*
X67270238Y-83002380D01*
X66984523Y-83002380D01*
X66889285Y-82954761D01*
X66841666Y-82907142D01*
X66571904Y-79192380D02*
X66571904Y-78192380D01*
X66810000Y-78192380D01*
X66952857Y-78240000D01*
X67048095Y-78335238D01*
X67095714Y-78430476D01*
X67143333Y-78620952D01*
X67143333Y-78763809D01*
X67095714Y-78954285D01*
X67048095Y-79049523D01*
X66952857Y-79144761D01*
X66810000Y-79192380D01*
X66571904Y-79192380D01*
X68000476Y-78525714D02*
X68000476Y-79192380D01*
X67762380Y-78144761D02*
X67524285Y-78859047D01*
X68143333Y-78859047D01*
X72128095Y-81292380D02*
X72128095Y-80292380D01*
X72699523Y-81292380D02*
X72270952Y-80720952D01*
X72699523Y-80292380D02*
X72128095Y-80863809D01*
X37282380Y-71643809D02*
X36282380Y-71643809D01*
X37282380Y-71167619D02*
X36282380Y-71167619D01*
X37282380Y-70596190D01*
X36282380Y-70596190D01*
X109037380Y-59022857D02*
X109037380Y-59499047D01*
X108037380Y-59499047D01*
X108989761Y-58737142D02*
X109037380Y-58594285D01*
X109037380Y-58356190D01*
X108989761Y-58260952D01*
X108942142Y-58213333D01*
X108846904Y-58165714D01*
X108751666Y-58165714D01*
X108656428Y-58213333D01*
X108608809Y-58260952D01*
X108561190Y-58356190D01*
X108513571Y-58546666D01*
X108465952Y-58641904D01*
X108418333Y-58689523D01*
X108323095Y-58737142D01*
X108227857Y-58737142D01*
X108132619Y-58689523D01*
X108085000Y-58641904D01*
X108037380Y-58546666D01*
X108037380Y-58308571D01*
X108085000Y-58165714D01*
X109037380Y-57213333D02*
X109037380Y-57784761D01*
X109037380Y-57499047D02*
X108037380Y-57499047D01*
X108180238Y-57594285D01*
X108275476Y-57689523D01*
X108323095Y-57784761D01*
X109132380Y-81882857D02*
X109132380Y-82359047D01*
X108132380Y-82359047D01*
X109084761Y-81597142D02*
X109132380Y-81454285D01*
X109132380Y-81216190D01*
X109084761Y-81120952D01*
X109037142Y-81073333D01*
X108941904Y-81025714D01*
X108846666Y-81025714D01*
X108751428Y-81073333D01*
X108703809Y-81120952D01*
X108656190Y-81216190D01*
X108608571Y-81406666D01*
X108560952Y-81501904D01*
X108513333Y-81549523D01*
X108418095Y-81597142D01*
X108322857Y-81597142D01*
X108227619Y-81549523D01*
X108180000Y-81501904D01*
X108132380Y-81406666D01*
X108132380Y-81168571D01*
X108180000Y-81025714D01*
X108227619Y-80644761D02*
X108180000Y-80597142D01*
X108132380Y-80501904D01*
X108132380Y-80263809D01*
X108180000Y-80168571D01*
X108227619Y-80120952D01*
X108322857Y-80073333D01*
X108418095Y-80073333D01*
X108560952Y-80120952D01*
X109132380Y-80692380D01*
X109132380Y-80073333D01*
X35393333Y-88082380D02*
X35060000Y-87606190D01*
X34821904Y-88082380D02*
X34821904Y-87082380D01*
X35202857Y-87082380D01*
X35298095Y-87130000D01*
X35345714Y-87177619D01*
X35393333Y-87272857D01*
X35393333Y-87415714D01*
X35345714Y-87510952D01*
X35298095Y-87558571D01*
X35202857Y-87606190D01*
X34821904Y-87606190D01*
X35774285Y-87177619D02*
X35821904Y-87130000D01*
X35917142Y-87082380D01*
X36155238Y-87082380D01*
X36250476Y-87130000D01*
X36298095Y-87177619D01*
X36345714Y-87272857D01*
X36345714Y-87368095D01*
X36298095Y-87510952D01*
X35726666Y-88082380D01*
X36345714Y-88082380D01*
X55152334Y-56315381D02*
X54819001Y-55839191D01*
X54580905Y-56315381D02*
X54580905Y-55315381D01*
X54961858Y-55315381D01*
X55057096Y-55363001D01*
X55104715Y-55410620D01*
X55152334Y-55505858D01*
X55152334Y-55648715D01*
X55104715Y-55743953D01*
X55057096Y-55791572D01*
X54961858Y-55839191D01*
X54580905Y-55839191D01*
X55485667Y-55315381D02*
X56104715Y-55315381D01*
X55771381Y-55696334D01*
X55914239Y-55696334D01*
X56009477Y-55743953D01*
X56057096Y-55791572D01*
X56104715Y-55886810D01*
X56104715Y-56124905D01*
X56057096Y-56220143D01*
X56009477Y-56267762D01*
X55914239Y-56315381D01*
X55628524Y-56315381D01*
X55533286Y-56267762D01*
X55485667Y-56220143D01*
X35393333Y-83002380D02*
X35060000Y-82526190D01*
X34821904Y-83002380D02*
X34821904Y-82002380D01*
X35202857Y-82002380D01*
X35298095Y-82050000D01*
X35345714Y-82097619D01*
X35393333Y-82192857D01*
X35393333Y-82335714D01*
X35345714Y-82430952D01*
X35298095Y-82478571D01*
X35202857Y-82526190D01*
X34821904Y-82526190D01*
X36250476Y-82335714D02*
X36250476Y-83002380D01*
X36012380Y-81954761D02*
X35774285Y-82669047D01*
X36393333Y-82669047D01*
X35393333Y-49982380D02*
X35060000Y-49506190D01*
X34821904Y-49982380D02*
X34821904Y-48982380D01*
X35202857Y-48982380D01*
X35298095Y-49030000D01*
X35345714Y-49077619D01*
X35393333Y-49172857D01*
X35393333Y-49315714D01*
X35345714Y-49410952D01*
X35298095Y-49458571D01*
X35202857Y-49506190D01*
X34821904Y-49506190D01*
X36298095Y-48982380D02*
X35821904Y-48982380D01*
X35774285Y-49458571D01*
X35821904Y-49410952D01*
X35917142Y-49363333D01*
X36155238Y-49363333D01*
X36250476Y-49410952D01*
X36298095Y-49458571D01*
X36345714Y-49553809D01*
X36345714Y-49791904D01*
X36298095Y-49887142D01*
X36250476Y-49934761D01*
X36155238Y-49982380D01*
X35917142Y-49982380D01*
X35821904Y-49934761D01*
X35774285Y-49887142D01*
X35393333Y-93162380D02*
X35060000Y-92686190D01*
X34821904Y-93162380D02*
X34821904Y-92162380D01*
X35202857Y-92162380D01*
X35298095Y-92210000D01*
X35345714Y-92257619D01*
X35393333Y-92352857D01*
X35393333Y-92495714D01*
X35345714Y-92590952D01*
X35298095Y-92638571D01*
X35202857Y-92686190D01*
X34821904Y-92686190D01*
X36250476Y-92162380D02*
X36060000Y-92162380D01*
X35964761Y-92210000D01*
X35917142Y-92257619D01*
X35821904Y-92400476D01*
X35774285Y-92590952D01*
X35774285Y-92971904D01*
X35821904Y-93067142D01*
X35869523Y-93114761D01*
X35964761Y-93162380D01*
X36155238Y-93162380D01*
X36250476Y-93114761D01*
X36298095Y-93067142D01*
X36345714Y-92971904D01*
X36345714Y-92733809D01*
X36298095Y-92638571D01*
X36250476Y-92590952D01*
X36155238Y-92543333D01*
X35964761Y-92543333D01*
X35869523Y-92590952D01*
X35821904Y-92638571D01*
X35774285Y-92733809D01*
X69683333Y-49982380D02*
X69350000Y-49506190D01*
X69111904Y-49982380D02*
X69111904Y-48982380D01*
X69492857Y-48982380D01*
X69588095Y-49030000D01*
X69635714Y-49077619D01*
X69683333Y-49172857D01*
X69683333Y-49315714D01*
X69635714Y-49410952D01*
X69588095Y-49458571D01*
X69492857Y-49506190D01*
X69111904Y-49506190D01*
X70016666Y-48982380D02*
X70683333Y-48982380D01*
X70254761Y-49982380D01*
X69683333Y-55062380D02*
X69350000Y-54586190D01*
X69111904Y-55062380D02*
X69111904Y-54062380D01*
X69492857Y-54062380D01*
X69588095Y-54110000D01*
X69635714Y-54157619D01*
X69683333Y-54252857D01*
X69683333Y-54395714D01*
X69635714Y-54490952D01*
X69588095Y-54538571D01*
X69492857Y-54586190D01*
X69111904Y-54586190D01*
X70254761Y-54490952D02*
X70159523Y-54443333D01*
X70111904Y-54395714D01*
X70064285Y-54300476D01*
X70064285Y-54252857D01*
X70111904Y-54157619D01*
X70159523Y-54110000D01*
X70254761Y-54062380D01*
X70445238Y-54062380D01*
X70540476Y-54110000D01*
X70588095Y-54157619D01*
X70635714Y-54252857D01*
X70635714Y-54300476D01*
X70588095Y-54395714D01*
X70540476Y-54443333D01*
X70445238Y-54490952D01*
X70254761Y-54490952D01*
X70159523Y-54538571D01*
X70111904Y-54586190D01*
X70064285Y-54681428D01*
X70064285Y-54871904D01*
X70111904Y-54967142D01*
X70159523Y-55014761D01*
X70254761Y-55062380D01*
X70445238Y-55062380D01*
X70540476Y-55014761D01*
X70588095Y-54967142D01*
X70635714Y-54871904D01*
X70635714Y-54681428D01*
X70588095Y-54586190D01*
X70540476Y-54538571D01*
X70445238Y-54490952D01*
X69683333Y-88082380D02*
X69350000Y-87606190D01*
X69111904Y-88082380D02*
X69111904Y-87082380D01*
X69492857Y-87082380D01*
X69588095Y-87130000D01*
X69635714Y-87177619D01*
X69683333Y-87272857D01*
X69683333Y-87415714D01*
X69635714Y-87510952D01*
X69588095Y-87558571D01*
X69492857Y-87606190D01*
X69111904Y-87606190D01*
X70159523Y-88082380D02*
X70350000Y-88082380D01*
X70445238Y-88034761D01*
X70492857Y-87987142D01*
X70588095Y-87844285D01*
X70635714Y-87653809D01*
X70635714Y-87272857D01*
X70588095Y-87177619D01*
X70540476Y-87130000D01*
X70445238Y-87082380D01*
X70254761Y-87082380D01*
X70159523Y-87130000D01*
X70111904Y-87177619D01*
X70064285Y-87272857D01*
X70064285Y-87510952D01*
X70111904Y-87606190D01*
X70159523Y-87653809D01*
X70254761Y-87701428D01*
X70445238Y-87701428D01*
X70540476Y-87653809D01*
X70588095Y-87606190D01*
X70635714Y-87510952D01*
X69207142Y-93162380D02*
X68873809Y-92686190D01*
X68635714Y-93162380D02*
X68635714Y-92162380D01*
X69016666Y-92162380D01*
X69111904Y-92210000D01*
X69159523Y-92257619D01*
X69207142Y-92352857D01*
X69207142Y-92495714D01*
X69159523Y-92590952D01*
X69111904Y-92638571D01*
X69016666Y-92686190D01*
X68635714Y-92686190D01*
X70159523Y-93162380D02*
X69588095Y-93162380D01*
X69873809Y-93162380D02*
X69873809Y-92162380D01*
X69778571Y-92305238D01*
X69683333Y-92400476D01*
X69588095Y-92448095D01*
X70778571Y-92162380D02*
X70873809Y-92162380D01*
X70969047Y-92210000D01*
X71016666Y-92257619D01*
X71064285Y-92352857D01*
X71111904Y-92543333D01*
X71111904Y-92781428D01*
X71064285Y-92971904D01*
X71016666Y-93067142D01*
X70969047Y-93114761D01*
X70873809Y-93162380D01*
X70778571Y-93162380D01*
X70683333Y-93114761D01*
X70635714Y-93067142D01*
X70588095Y-92971904D01*
X70540476Y-92781428D01*
X70540476Y-92543333D01*
X70588095Y-92352857D01*
X70635714Y-92257619D01*
X70683333Y-92210000D01*
X70778571Y-92162380D01*
X92067142Y-49982380D02*
X91733809Y-49506190D01*
X91495714Y-49982380D02*
X91495714Y-48982380D01*
X91876666Y-48982380D01*
X91971904Y-49030000D01*
X92019523Y-49077619D01*
X92067142Y-49172857D01*
X92067142Y-49315714D01*
X92019523Y-49410952D01*
X91971904Y-49458571D01*
X91876666Y-49506190D01*
X91495714Y-49506190D01*
X93019523Y-49982380D02*
X92448095Y-49982380D01*
X92733809Y-49982380D02*
X92733809Y-48982380D01*
X92638571Y-49125238D01*
X92543333Y-49220476D01*
X92448095Y-49268095D01*
X93971904Y-49982380D02*
X93400476Y-49982380D01*
X93686190Y-49982380D02*
X93686190Y-48982380D01*
X93590952Y-49125238D01*
X93495714Y-49220476D01*
X93400476Y-49268095D01*
X92067142Y-93162380D02*
X91733809Y-92686190D01*
X91495714Y-93162380D02*
X91495714Y-92162380D01*
X91876666Y-92162380D01*
X91971904Y-92210000D01*
X92019523Y-92257619D01*
X92067142Y-92352857D01*
X92067142Y-92495714D01*
X92019523Y-92590952D01*
X91971904Y-92638571D01*
X91876666Y-92686190D01*
X91495714Y-92686190D01*
X93019523Y-93162380D02*
X92448095Y-93162380D01*
X92733809Y-93162380D02*
X92733809Y-92162380D01*
X92638571Y-92305238D01*
X92543333Y-92400476D01*
X92448095Y-92448095D01*
X93400476Y-92257619D02*
X93448095Y-92210000D01*
X93543333Y-92162380D01*
X93781428Y-92162380D01*
X93876666Y-92210000D01*
X93924285Y-92257619D01*
X93971904Y-92352857D01*
X93971904Y-92448095D01*
X93924285Y-92590952D01*
X93352857Y-93162380D01*
X93971904Y-93162380D01*
M02*
